<?xml version="1.0" encoding="UTF-8"?> <svg xmlns="http://www.w3.org/2000/svg" width="180" height="169" viewBox="0 0 180 169" fill="none"> <g clip-path="url(#clip0)"> <path d="M156.714 131.091C167.79 116.79 173.713 99.1781 173.527 81.1007C173.476 36.6722 140.447 0 86.7209 0C32.9952 0 0 36.6722 0 81.1007C0 125.529 32.8248 162.201 86.7209 162.201C106.123 162.201 122.782 157.388 136.222 149.206L180 168.75L156.714 131.091Z" fill="#FED400"></path> <path d="M94.8633 54.3959L95.0336 53.9026L94.8633 54.3959Z" fill="#93A2BA"></path> <path d="M83.4688 84.7577L83.588 84.4175L83.4688 84.7577Z" fill="#93A2BA"></path> <path d="M83.332 85.0809H83.3491L83.4683 84.7577L83.332 85.0809Z" fill="#A1A4A4"></path> <path d="M142.203 135.203V113.793C142.203 111.449 141.058 109.251 139.138 107.906L125.629 98.4484C124.723 97.8143 123.644 97.4747 122.537 97.4747H111.66L111.84 128.215C111.906 131.418 113.999 134.224 117.05 135.203H142.203Z" fill="#FEC9A3"></path> <path d="M131.423 135.203H118.847C114.878 135.203 111.66 131.986 111.66 128.017V120.831H124.236L131.423 135.203Z" fill="#FABD91"></path> <path d="M84.7118 43.5763C83.4739 43.5782 82.2504 43.8368 81.1185 44.3345V31H48.7797C42.8257 31 38 35.8257 38 41.7797V74.1186H51.3345C49.3401 69.5767 51.4044 64.2767 55.9481 62.2826C60.49 60.2883 65.79 62.3526 67.7841 66.8963C68.7957 69.1976 68.7957 71.8191 67.7841 74.1204H81.1185V60.786C85.6604 62.7803 90.9604 60.716 92.9545 56.1723C94.9486 51.6286 92.8845 46.3304 88.3408 44.3363C87.1982 43.8314 85.9622 43.5744 84.7118 43.5763Z" fill="#88B337"></path> <path d="M124.238 41.7797C124.238 35.8257 119.412 31 113.458 31H81.1191V44.3345C85.6609 42.3401 90.9609 44.4044 92.955 48.9481C94.9493 53.49 92.885 58.79 88.3413 60.7841C86.04 61.7957 83.4185 61.7957 81.1172 60.7841V74.1186H94.4516C92.4573 78.6604 94.5216 83.9604 99.0653 85.9545C103.607 87.9488 108.907 85.8845 110.901 81.3408C111.913 79.0395 111.913 76.418 110.901 74.1167H124.238V41.7797Z" fill="#E8594A"></path> <path d="M124.236 42.8054C113.966 57.092 95.4272 65.2072 81.1172 69.5749V74.1187H94.4516C92.4573 78.6605 94.5216 83.9605 99.0653 85.9546C103.607 87.9489 108.907 85.8846 110.901 81.3409C111.913 79.0396 111.913 76.4181 110.901 74.1168H124.236V42.8054Z" fill="#D65245"></path> <path d="M77.5253 88.4913C78.7632 88.4932 79.9867 88.7517 81.1185 89.2494V74.1184H67.7841C69.7784 69.5765 67.7141 64.2765 63.1704 62.2824C58.6267 60.2881 53.3286 62.3524 51.3345 66.8961C50.3229 69.1975 50.3229 71.8189 51.3345 74.1202H38V106.459C38 112.413 42.8257 117.239 48.7797 117.239H81.1185V105.701C76.5767 107.695 71.2767 105.631 69.2826 101.087C67.2883 96.5454 69.3526 91.2454 73.8963 89.2513C75.0389 88.7464 76.2749 88.4894 77.5253 88.4913Z" fill="#FDB62F"></path> <path d="M38.0002 106.458C38.0002 112.412 42.8259 117.237 48.7799 117.237H81.1188V105.7C76.5984 107.69 71.32 105.64 69.3294 101.12C68.8677 100.071 68.6108 98.9409 68.5748 97.7946C58.9431 102.09 48.5443 104.403 38 104.595V106.458H38.0002Z" fill="#FFA719"></path> <path d="M128.933 111.668L117.565 81.305L105.081 86.0067C108.561 89.5514 108.507 95.2467 104.962 98.7248C101.417 102.203 95.722 102.151 92.2439 98.6062C90.4726 96.8006 89.5417 94.3339 89.6819 91.8079L77.199 96.5096L82.517 110.719C81.2827 110.649 80.0467 110.838 78.8879 111.272C74.249 113.072 71.9495 118.292 73.7496 122.93C75.5193 127.488 80.6019 129.804 85.203 128.144C86.3618 127.707 87.4182 127.032 88.302 126.164L92.3555 137L122.632 125.597C128.212 123.484 131.031 117.253 128.933 111.668Z" fill="#4398D1"></path> <path d="M123.071 96.0103C110.674 114.551 87.4355 121.026 73.8242 123.256C75.7341 127.8 80.9658 129.934 85.5093 128.024C86.5496 127.587 87.4982 126.955 88.3029 126.164L92.3564 137L122.633 125.597C128.211 123.484 131.028 117.257 128.934 111.673L123.071 96.0103Z" fill="#3E8FC9"></path> <path d="M84.7118 43.5763C83.4739 43.5782 82.2504 43.8368 81.1185 44.3345V41.7275C67.6657 54.1115 49.4391 60.9512 38 64.284V74.1186H51.3345C49.3401 69.5767 51.4044 64.2767 55.9481 62.2826C60.49 60.2883 65.79 62.3526 67.7841 66.8963C68.7957 69.1977 68.7957 71.8191 67.7841 74.1204H81.1185V60.786C85.6604 62.7803 90.9604 60.716 92.9545 56.1723C94.9486 51.6286 92.8845 46.3305 88.3408 44.3363C87.1982 43.8314 85.9622 43.5745 84.7118 43.5763Z" fill="#80A834"></path> <path d="M120.677 111.88C118.957 110.126 116.142 110.097 114.389 111.817C112.635 113.536 112.606 116.351 114.326 118.105C114.347 118.126 114.367 118.148 114.389 118.168L120.645 124.424C120.645 130.378 125.47 135.203 131.424 135.203H142.204V133.407L120.677 111.88Z" fill="#FEC9A3"></path> </g> <defs> <clipPath id="clip0"> <rect width="180" height="168.75" fill="white"></rect> </clipPath> </defs> </svg> 