<?xml version="1.0" encoding="UTF-8"?> <svg xmlns="http://www.w3.org/2000/svg" width="180" height="169" viewBox="0 0 180 169" fill="none"> <g clip-path="url(#clip0)"> <path d="M156.714 131.091C167.79 116.79 173.713 99.1781 173.527 81.1007C173.476 36.6722 140.447 0 86.7209 0C32.9952 0 0 36.6722 0 81.1007C0 125.529 32.8248 162.201 86.7209 162.201C106.123 162.201 122.782 157.388 136.222 149.206L180 168.75L156.714 131.091Z" fill="#FED400"></path> <path d="M94.8633 54.396L95.0336 53.9027L94.8633 54.396Z" fill="#93A2BA"></path> <path d="M83.4688 84.7577L83.588 84.4175L83.4688 84.7577Z" fill="#93A2BA"></path> <path d="M83.332 85.0809H83.3491L83.4683 84.7577L83.332 85.0809Z" fill="#A1A4A4"></path> <path d="M96.3125 123.16H75.6875L81.2326 99.3727H90.7674L96.3125 123.16Z" fill="#0A617D"></path> <path d="M96.3125 123.16H86V99.3727H90.7674L96.3125 123.16Z" fill="#08475E"></path> <path d="M137.777 95.4453H94.5938C92.814 95.4453 91.3711 94.0024 91.3711 92.2227C91.3711 90.4429 92.814 89 94.5938 89H137.777C139.557 89 141 90.4429 141 92.2227C141 94.0024 139.557 95.4453 137.777 95.4453Z" fill="#D8E1FD"></path> <path d="M77.4062 95.4453H34.2227C32.4429 95.4453 31 94.0024 31 92.2227C31 90.4429 32.4429 89 34.2227 89H77.4062C79.186 89 80.6289 90.4429 80.6289 92.2227C80.6289 94.0024 79.186 95.4453 77.4062 95.4453Z" fill="#E9EDFD"></path> <path d="M102.113 123.16C102.113 124.939 100.67 126.383 98.8906 126.383H73.1094C71.3305 126.383 69.8867 124.939 69.8867 123.16C69.8867 121.381 71.3305 119.938 73.1094 119.938H98.8906C100.67 119.938 102.113 121.381 102.113 123.16Z" fill="#0A789B"></path> <path d="M102.113 123.16C102.113 124.939 100.67 126.383 98.8906 126.383H86V119.938H98.8906C100.67 119.938 102.113 121.381 102.113 123.16Z" fill="#0A617D"></path> <path d="M86 100.816C90.7462 100.816 94.5938 96.9689 94.5938 92.2227C94.5938 87.4765 90.7462 83.6289 86 83.6289C81.2538 83.6289 77.4062 87.4765 77.4062 92.2227C77.4062 96.9689 81.2538 100.816 86 100.816Z" fill="#D8E1FD"></path> <path d="M86 100.816V83.6289C90.7459 83.6289 94.5938 87.4768 94.5938 92.2227C94.5938 96.9686 90.7459 100.816 86 100.816Z" fill="#C2D1F1"></path> <path d="M86 80.4062C79.4838 80.4062 74.1836 85.7064 74.1836 92.2227C74.1836 98.7389 79.4838 104.039 86 104.039C92.5162 104.039 97.8164 98.7389 97.8164 92.2227C97.8164 85.7064 92.5162 80.4062 86 80.4062ZM86 97.5938C83.0373 97.5938 80.6289 95.1854 80.6289 92.2227C80.6289 89.26 83.0373 86.8516 86 86.8516C88.9627 86.8516 91.3711 89.26 91.3711 92.2227C91.3711 95.1854 88.9627 97.5938 86 97.5938Z" fill="#0A789B"></path> <path d="M97.8164 92.2227C97.8164 98.7389 92.5162 104.039 86 104.039V97.5938C88.9627 97.5938 91.3711 95.1854 91.3711 92.2227C91.3711 89.26 88.9627 86.8516 86 86.8516V80.4062C92.5162 80.4062 97.8164 85.7064 97.8164 92.2227Z" fill="#0A617D"></path> <path d="M66.7908 76.0557C64.6823 79.568 60.8946 81.6954 56.8242 81.6954C53.692 81.6954 51.7188 80.4643 51.6207 80.4643C46.2472 83.1612 39.6047 81.3097 36.4505 76.0557C32.8863 70.1174 32.8863 62.7397 36.4505 56.8014C39.5937 51.5616 46.2304 49.6389 51.625 52.3284C56.9963 49.6478 63.6302 51.539 66.7908 56.8014C70.355 62.7397 70.355 70.1174 66.7908 76.0557Z" fill="#F17AB4"></path> <path d="M66.7908 76.0557C63.6371 81.3093 57.0032 83.1589 51.625 80.4664V52.3284C56.9963 49.6478 63.6303 51.539 66.7908 56.8014C70.3551 62.7397 70.3551 70.1174 66.7908 76.0557Z" fill="#FF3D7D"></path> <path d="M63.8711 36.8594H61.293C55.9535 36.8594 51.625 41.1878 51.625 46.5273V52.3281H57.4258C62.7653 52.3281 67.0938 47.9997 67.0938 42.6602V40.082C67.0938 38.3021 65.6509 36.8594 63.8711 36.8594Z" fill="#00C6CB"></path> <path d="M120.376 34H115.22C105.896 34 98.3032 41.5582 98.2473 50.8695C98.1979 52.7316 99.6829 54.1953 101.47 54.1953H134.126C135.905 54.1953 137.349 52.7516 137.349 50.9727C137.349 41.6141 129.735 34 120.376 34Z" fill="#F2D1A3"></path> <path d="M134.125 54.1953C127.39 54.1953 122.042 54.1932 117.797 54.191V34H120.375C129.734 34 137.348 41.6141 137.348 50.9727C137.348 52.7516 135.904 54.1953 134.125 54.1953Z" fill="#EDBC85"></path> <path d="M134.125 61.5H101.469C99.6898 61.5 98.2461 62.9438 98.2461 64.7227V72.0273C98.2461 77.3576 102.584 81.6953 107.914 81.6953H127.68C133.01 81.6953 137.348 77.3576 137.348 72.0273V64.7227C137.348 62.9438 135.904 61.5 134.125 61.5Z" fill="#EDBC85"></path> <path d="M137.348 64.7227V72.0273C137.348 77.3576 133.01 81.6953 127.68 81.6953H117.797V61.5H134.125C135.904 61.5 137.348 62.9438 137.348 64.7227Z" fill="#E9A86C"></path> <path d="M141 54.1953V61.5C141 63.2789 139.556 64.7227 137.777 64.7227H97.8164C96.0375 64.7227 94.5938 63.2789 94.5938 61.5V54.1953C94.5938 52.4164 96.0375 50.9727 97.8164 50.9727H137.777C139.556 50.9727 141 52.4164 141 54.1953Z" fill="#7B5D3D"></path> <path d="M141 54.1953V61.5C141 63.2789 139.556 64.7227 137.777 64.7227H117.797V50.9727H137.777C139.556 50.9727 141 52.4164 141 54.1953Z" fill="#5E482F"></path> </g> <defs> <clipPath id="clip0"> <rect width="180" height="168.75" fill="white"></rect> </clipPath> </defs> </svg> 