<?xml version="1.0" encoding="UTF-8"?> <svg xmlns="http://www.w3.org/2000/svg" width="180" height="169" viewBox="0 0 180 169" fill="none"> <g clip-path="url(#clip0)"> <path d="M156.714 131.091C167.79 116.79 173.713 99.1781 173.527 81.1007C173.476 36.6722 140.447 0 86.7209 0C32.9952 0 0 36.6722 0 81.1007C0 125.529 32.8248 162.201 86.7209 162.201C106.123 162.201 122.782 157.388 136.222 149.206L180 168.75L156.714 131.091Z" fill="#FED400"></path> <path d="M94.8633 54.3959L95.0336 53.9026L94.8633 54.3959Z" fill="#93A2BA"></path> <path d="M83.4688 84.7577L83.588 84.4175L83.4688 84.7577Z" fill="#93A2BA"></path> <path d="M83.332 85.0809H83.3491L83.4683 84.7577L83.332 85.0809Z" fill="#A1A4A4"></path> <path d="M46.5071 77.5224H41.2346C40.3274 77.524 39.5484 78.1679 39.376 79.0586L31.0691 121.693C30.8536 122.807 31.1478 123.959 31.8712 124.832C32.5945 125.706 33.671 126.211 34.8053 126.207H75.714C75.714 128.293 79.9622 130 85.1967 130C90.4312 130 94.6795 128.293 94.6795 126.207H135.588C136.722 126.211 137.799 125.706 138.522 124.832C139.246 123.959 139.54 122.807 139.324 121.693L131.017 79.0586C130.845 78.1679 130.066 77.524 129.159 77.5224H46.5071Z" fill="#E64C3C"></path> <path d="M85.1962 83.0413V118.621C82.4215 117.415 79.5297 116.5 76.5669 115.89C65.3045 113.441 53.5933 114.037 42.6375 117.615C42.0078 117.808 41.3235 117.662 40.8264 117.231C40.3293 116.799 40.0892 116.142 40.191 115.491L46.5065 77.5224L47.0375 74.3172C47.1735 73.5038 47.8157 72.8692 48.6306 72.7431C49.9203 72.5534 51.2479 72.3638 52.5755 72.212C54.893 76.7171 59.5334 79.5496 64.5996 79.5517C64.941 79.5517 65.2634 79.5327 65.5858 79.5138C66.8487 79.4152 68.0926 79.1473 69.2841 78.7172C69.288 78.7575 69.301 78.7964 69.322 78.831C70.7411 82.8056 74.5086 85.4565 78.7289 85.45C81.1054 85.4578 83.4038 84.6019 85.1962 83.0413V83.0413Z" fill="#F5EFCA"></path> <path d="M127.754 117.616C116.798 114.037 105.087 113.441 93.8246 115.89C90.8618 116.5 87.97 117.415 85.1953 118.621V83.0414C85.5942 82.7153 85.9624 82.3534 86.2953 81.9603C88.1902 82.714 90.2112 83.1002 92.2505 83.0983H92.3643C92.4628 84.4544 92.9797 85.7466 93.8436 86.7965C95.6844 88.6163 97.9855 89.9012 100.5 90.5138C102.325 91.0964 103.953 92.173 105.204 93.6241C106.319 95.0052 108.208 95.491 109.85 94.819C111.297 94.1943 112.235 92.7718 112.24 91.1965C112.242 90.7844 112.178 90.3746 112.05 89.9827C111.861 89.3948 111.652 88.8069 111.406 88.2379C110.93 87.0628 110.305 85.9537 109.547 84.9379C113.308 82.9037 115.95 79.2794 116.735 75.0759C116.792 75 116.868 74.9241 116.925 74.8483C117.574 74.0848 118.104 73.2281 118.499 72.3069C119.599 72.4396 120.68 72.5724 121.761 72.7431C122.576 72.8693 123.218 73.5038 123.354 74.3172L123.885 77.5224L130.2 115.491C130.302 116.142 130.062 116.799 129.565 117.231C129.068 117.662 128.384 117.808 127.754 117.616V117.616Z" fill="#F9EAB0"></path> <path d="M94.6804 126.207C94.6804 128.293 90.4321 130 85.1976 130C79.9631 130 75.7148 128.293 75.7148 126.207L76.5683 115.89C79.5311 116.5 82.4229 117.415 85.1976 118.621C87.9723 117.415 90.8641 116.5 93.8269 115.89L94.6804 126.207Z" fill="#C03A2B"></path> <path d="M119.335 68.3431C119.333 69.7078 119.049 71.0574 118.5 72.3069C118.106 73.2281 117.575 74.0848 116.926 74.8483C116.869 74.9242 116.793 75 116.736 75.0759C115.951 79.2795 113.31 82.9037 109.548 84.9379C110.307 85.9538 110.931 87.0629 111.407 88.2379C111.654 88.8069 111.862 89.3948 112.052 89.9828C112.179 90.3747 112.243 90.7844 112.241 91.1966C112.236 92.7719 111.298 94.1943 109.852 94.819C108.209 95.491 106.32 95.0052 105.205 93.6242C103.955 92.173 102.327 91.0964 100.502 90.5138C97.9868 89.9013 95.6858 88.6163 93.8449 86.7966C92.981 85.7466 92.4641 84.4544 92.3656 83.0983H92.2518C90.2125 83.1002 88.1915 82.7141 86.2966 81.9604C85.9637 82.3535 85.5955 82.7153 85.1966 83.0414C83.4043 84.6019 81.1059 85.4579 78.7294 85.45C74.5091 85.4566 70.7416 82.8057 69.3225 78.8311C69.3015 78.7965 69.2885 78.7576 69.2846 78.7173C68.0931 79.1474 66.8492 79.4153 65.5863 79.5138C65.2639 79.5328 64.9415 79.5517 64.6001 79.5517C59.4742 79.5482 54.7891 76.6526 52.4935 72.0695C50.1979 67.4864 50.6849 62.0003 53.7518 57.8931C53.5237 57.2738 53.4081 56.6186 53.4104 55.9586C53.399 53.1558 55.3677 50.7347 58.1139 50.1742C58.1241 50.1639 58.1374 50.1572 58.1518 50.1552C58.1328 49.9276 58.1139 49.7 58.1139 49.4535C58.1113 48.4016 58.3311 47.361 58.7587 46.4C59.9688 43.6014 62.7269 41.79 65.776 41.7914C66.9259 41.7859 68.0616 42.0455 69.0949 42.55C71.114 39.1507 74.7756 37.0675 78.7294 37.069C81.4421 37.0591 84.0628 38.052 86.088 39.8569C87.2506 37.9816 89.3653 36.9151 91.5644 37.095C93.7635 37.2749 95.6768 38.671 96.5191 40.7104C97.0607 40.6499 97.6051 40.6182 98.1501 40.6155C105.498 40.6277 111.614 46.2648 112.223 53.5879H112.279C113.842 53.5879 115.34 54.21 116.443 55.3167C117.547 56.4233 118.164 57.9236 118.159 59.4862C118.155 60.508 117.894 61.5125 117.4 62.4069C118.659 64.1301 119.336 66.2092 119.335 68.3431V68.3431Z" fill="#FB7B76"></path> <path d="M85.1973 25.6897C84.1499 25.6897 83.3008 24.8405 83.3008 23.7931V21.8966C83.3008 20.8491 84.1499 20 85.1973 20C86.2448 20 87.0939 20.8491 87.0939 21.8966V23.7931C87.0939 24.8405 86.2448 25.6897 85.1973 25.6897Z" fill="#F0C419"></path> <path d="M115.763 38.7436C114.996 38.7435 114.305 38.2814 114.012 37.5728C113.718 36.8642 113.88 36.0486 114.423 35.5062L116.319 33.6097C116.795 33.1167 117.5 32.9189 118.163 33.0925C118.827 33.2661 119.344 33.7839 119.518 34.447C119.692 35.1101 119.494 35.8152 119.001 36.2914L117.104 38.188C116.749 38.5437 116.266 38.7435 115.763 38.7436V38.7436Z" fill="#F0C419"></path> <path d="M54.629 38.7436C54.126 38.7435 53.6437 38.5437 53.2881 38.188L51.3915 36.2914C50.8985 35.8152 50.7008 35.1101 50.8744 34.447C51.0479 33.7839 51.5658 33.2661 52.2289 33.0925C52.8919 32.9189 53.5971 33.1167 54.0733 33.6097L55.9698 35.5062C56.5121 36.0486 56.6742 36.8642 56.3808 37.5728C56.0873 38.2814 55.3959 38.7435 54.629 38.7436Z" fill="#F0C419"></path> <path d="M69.2309 30.763C68.4639 30.7631 67.7723 30.3013 67.4785 29.5928L65.3013 24.3355C65.0245 23.7065 65.1096 22.9769 65.5238 22.4285C65.9381 21.8801 66.6166 21.5987 67.2973 21.693C67.9781 21.7873 68.5546 22.2425 68.8042 22.8828L70.9834 28.14C71.1767 28.605 71.1772 29.1278 70.9848 29.5931C70.7923 30.0585 70.4226 30.4282 69.9573 30.6207C69.7267 30.7147 69.48 30.763 69.2309 30.763V30.763Z" fill="#F0C419"></path> <path d="M101.163 30.763C100.914 30.7624 100.667 30.7135 100.436 30.6188C99.9715 30.4263 99.6022 30.0569 99.4098 29.592C99.2174 29.1271 99.2176 28.6048 99.4103 28.14L101.589 22.8828C101.839 22.2425 102.416 21.7873 103.096 21.693C103.777 21.5987 104.456 21.8801 104.87 22.4285C105.284 22.9769 105.369 23.7065 105.092 24.3355L102.915 29.5928C102.621 30.3013 101.93 30.7631 101.163 30.763V30.763Z" fill="#F0C419"></path> <path d="M123.742 53.3452C122.835 53.348 122.053 52.7082 121.876 51.8187C121.7 50.9292 122.177 50.0389 123.016 49.6943L128.273 47.5171C128.899 47.2579 129.616 47.3524 130.154 47.7651C130.691 48.1777 130.968 48.8457 130.879 49.5175C130.79 50.1893 130.35 50.7628 129.724 51.0219L124.469 53.1992C124.239 53.2951 123.992 53.3448 123.742 53.3452Z" fill="#F0C419"></path> <path d="M46.649 53.3452C46.3997 53.3448 46.1528 53.2951 45.9227 53.1992L40.6673 51.0219C40.0412 50.7628 39.601 50.1893 39.5124 49.5175C39.4238 48.8457 39.7003 48.1777 40.2378 47.7651C40.7753 47.3524 41.4921 47.2579 42.1182 47.5171L47.3754 49.6943C48.2143 50.0389 48.6919 50.9292 48.5149 51.8187C48.3379 52.7082 47.556 53.348 46.649 53.3452V53.3452Z" fill="#F0C419"></path> <path d="M116.925 74.8483C116.869 74.9242 116.793 75 116.736 75.0759C116.402 76.9024 115.705 78.6435 114.688 80.1966C113.694 80.4784 112.666 80.6189 111.634 80.6138C109.755 80.6085 107.903 80.1601 106.229 79.3052C105.437 78.8812 104.693 78.3725 104.01 77.7879C103.253 78.0809 102.45 78.2351 101.639 78.2431C99.1341 78.256 96.8394 76.8439 95.722 74.6017C95.4171 73.9953 95.4589 73.2723 95.8316 72.705C96.2043 72.1377 96.8514 71.8124 97.529 71.8516C98.2067 71.8907 98.8119 72.2884 99.1168 72.8948C99.4914 73.6139 100.155 74.139 100.941 74.3382C101.727 74.5374 102.56 74.3918 103.232 73.9379C103.991 73.4202 104.445 72.5615 104.446 71.6431C104.449 71.2035 104.352 70.7689 104.162 70.3724C103.78 69.4554 104.17 68.3991 105.057 67.9508C105.943 67.5026 107.025 67.8144 107.538 68.6655C107.999 69.5904 108.239 70.6097 108.239 71.6431C108.224 72.9683 107.807 74.2577 107.044 75.3414C107.348 75.55 107.651 75.7586 107.955 75.9293C109.093 76.5151 110.354 76.8207 111.634 76.8207C113.58 76.8315 115.462 76.1299 116.925 74.8483V74.8483Z" fill="#FF5364"></path> <path d="M93.7311 67.4024C96.188 65.7096 97.8775 63.1156 98.4326 60.1841C98.5738 59.513 98.3417 58.8179 97.8256 58.3663C97.3095 57.9147 96.5898 57.7769 95.9433 58.006C95.2969 58.235 94.8245 58.7952 94.7078 59.471C94.3359 61.4271 93.2073 63.1575 91.5671 64.2864C88.4117 66.4115 84.1799 65.9292 81.5837 63.1484C80.8772 62.3733 79.6761 62.3177 78.901 63.0242C78.1259 63.7307 78.0703 64.9318 78.7768 65.7069C80.3856 67.4832 82.5119 68.7092 84.8552 69.2117C83.7927 70.7051 82.0718 71.5903 80.239 71.5862C79.1916 71.5862 78.3425 72.4353 78.3425 73.4827C78.3425 74.5302 79.1916 75.3793 80.239 75.3793C84.1652 75.3949 87.688 72.97 89.0751 69.297C90.7485 69.0189 92.339 68.3717 93.7311 67.4024V67.4024Z" fill="#FF5364"></path> <path d="M111.406 88.2379C110.011 88.9493 108.514 89.4358 106.968 89.6793C106.867 89.6951 106.766 89.7014 106.664 89.6983C105.665 89.7075 104.831 88.9404 104.755 87.9444C104.68 86.9483 105.391 86.0647 106.38 85.9241C107.479 85.7577 108.547 85.4252 109.547 84.9379C110.305 85.9537 110.93 87.0628 111.406 88.2379V88.2379Z" fill="#FF5364"></path> <path d="M69.1523 75C69.0566 75.5321 69.0058 76.0714 69.0006 76.6121C68.9967 77.3236 69.0925 78.0322 69.2851 78.7172C68.0936 79.1473 66.8497 79.4153 65.5868 79.5138C65.344 78.5847 65.2166 77.6292 65.2075 76.669C61.8668 76.3046 59.3344 73.4864 59.3282 70.1259C59.3218 69.0696 60.1685 68.2059 61.2247 68.1914C61.7253 68.1884 62.2066 68.3846 62.5624 68.7368C62.9182 69.089 63.1193 69.5683 63.1213 70.069V70.1259C63.1496 71.6245 64.336 72.8441 65.8333 72.9138C66.0955 72.0584 66.4584 71.2371 66.9144 70.4672C67.169 70.0323 67.5885 69.7187 68.0776 69.5973C68.5668 69.4759 69.0842 69.5571 69.5126 69.8224C70.4044 70.3737 70.6911 71.5372 70.1575 72.4397C69.6759 73.2281 69.3357 74.0945 69.1523 75V75Z" fill="#FF5364"></path> <path d="M97.3551 86.0949C96.2155 86.4594 95.0386 86.6948 93.8465 86.7966C92.9826 85.7466 92.4657 84.4545 92.3672 83.0983C92.5507 83.1018 92.7343 83.0955 92.9172 83.0793C94.0435 83.0079 95.1575 82.8042 96.2362 82.4724C96.8903 82.2481 97.6146 82.3975 98.1265 82.8624C98.6385 83.3273 98.8568 84.034 98.6962 84.7067C98.5357 85.3793 98.0218 85.9112 97.3551 86.0949V86.0949Z" fill="#FF5364"></path> <path d="M81.023 52.2414C81.023 51.194 80.1739 50.3448 79.1265 50.3448C74.3104 50.3501 70.4076 54.2529 70.4023 59.069C70.4023 60.1164 71.2515 60.9655 72.2989 60.9655C73.3463 60.9655 74.1954 60.1164 74.1954 59.069C74.1954 57.7612 74.715 56.507 75.6397 55.5822C76.5645 54.6575 77.8187 54.138 79.1265 54.138C80.1739 54.138 81.023 53.2888 81.023 52.2414V52.2414Z" fill="#FF5364"></path> <path d="M56.2703 62.9057C55.9258 62.9061 55.5879 62.8116 55.2936 62.6326C53.7297 61.6889 52.5464 60.2264 51.9499 58.5C51.6614 57.6792 51.5146 56.8154 51.5156 55.9453C51.5156 51.6472 54.9933 48.1593 59.2915 48.1467C61.7543 48.1373 64.073 49.3069 65.5292 51.2931C65.9334 51.8372 66.0166 52.5556 65.7475 53.1776C65.4784 53.7997 64.8979 54.231 64.2246 54.3089C63.5513 54.3869 62.8876 54.0998 62.4834 53.5557C61.7401 52.5414 60.5566 51.9437 59.2991 51.9474C57.504 51.9575 55.9346 53.1601 55.458 54.8908C54.9814 56.6216 55.7139 58.4581 57.2508 59.3857C57.9816 59.8251 58.3293 60.6982 58.1005 61.5197C57.8718 62.3412 57.123 62.909 56.2703 62.9076V62.9057Z" fill="#FF5364"></path> <path d="M96.9692 44.8657C95.9218 44.8657 95.0727 44.0166 95.0727 42.9691C95.0727 40.7659 93.2866 38.9797 91.0833 38.9797C88.88 38.9797 87.0939 40.7659 87.0939 42.9691C87.0939 44.0166 86.2448 44.8657 85.1973 44.8657C84.1499 44.8657 83.3008 44.0166 83.3008 42.9691C83.3008 38.671 86.7851 35.1866 91.0833 35.1866C95.3814 35.1866 98.8658 38.671 98.8658 42.9691C98.8658 43.4721 98.666 43.9545 98.3103 44.3102C97.9546 44.6659 97.4722 44.8657 96.9692 44.8657V44.8657Z" fill="#FF5364"></path> <path d="M114.758 66.7329C113.878 66.7243 113.119 66.1107 112.926 65.2514C112.734 64.3921 113.158 63.5133 113.95 63.1295C114.706 62.7743 115.334 62.194 115.746 61.4681C116.711 59.8239 116.376 57.7265 114.946 56.4654C113.516 55.2044 111.393 55.1335 109.882 56.2962C109.044 56.9247 107.856 56.7549 107.227 55.9169C106.599 55.079 106.768 53.8902 107.606 53.2617C108.934 52.2569 110.55 51.7087 112.215 51.699C115.879 51.6741 119.066 54.2041 119.873 57.7784C120.68 61.3526 118.889 65.0066 115.57 66.5585C115.316 66.6766 115.039 66.7363 114.758 66.7329V66.7329Z" fill="#FF5364"></path> </g> <defs> <clipPath id="clip0"> <rect width="180" height="168.75" fill="white"></rect> </clipPath> </defs> </svg> 