<?xml version="1.0" encoding="UTF-8"?> <svg xmlns="http://www.w3.org/2000/svg" width="180" height="169" viewBox="0 0 180 169" fill="none"> <g clip-path="url(#clip0)"> <path d="M156.714 131.091C167.79 116.79 173.713 99.1781 173.527 81.1007C173.476 36.6722 140.447 0 86.7209 0C32.9952 0 0 36.6722 0 81.1007C0 125.529 32.8248 162.201 86.7209 162.201C106.123 162.201 122.782 157.388 136.222 149.206L180 168.75L156.714 131.091Z" fill="#FED400"></path> <path d="M94.8633 54.3959L95.0336 53.9026L94.8633 54.3959Z" fill="#93A2BA"></path> <path d="M83.4688 84.7577L83.588 84.4175L83.4688 84.7577Z" fill="#93A2BA"></path> <path d="M83.332 85.0809H83.3491L83.4683 84.7577L83.332 85.0809Z" fill="#A1A4A4"></path> <path d="M124.285 43.6049H64.0534C61.2822 43.6049 59.0352 45.872 59.0352 48.6678V127.628C59.0352 130.424 61.2822 132.691 64.0534 132.691H124.285C129.649 132.691 133.998 128.303 133.998 122.892V53.4044C133.998 47.9929 129.649 43.6049 124.285 43.6049Z" fill="#EFEDEE"></path> <path d="M124.285 43.6049H64.0534C61.2822 43.6049 59.0352 45.8816 59.0352 48.6892V127.985C59.0352 128.487 59.1084 128.973 59.2427 129.432H116.77C124.472 129.432 130.739 123.083 130.739 115.279V46.0943C129.023 44.5467 126.763 43.6049 124.285 43.6049Z" fill="#D2D2D2"></path> <path d="M64.3111 36H56.4919C53.6986 36 51.4336 38.267 51.4336 41.0628V120.024C51.4336 122.819 53.6986 125.086 56.4919 125.086H64.3111L72.0756 80.5432L64.3111 36Z" fill="#42C3E2"></path> <path d="M126.395 45.7995V115.287C126.395 120.699 122.064 125.086 116.722 125.086H64.4688V36H116.722C122.064 36 126.395 40.388 126.395 45.7995Z" fill="#6EE3FF"></path> <path d="M53.6632 47.1244H48.7579C47.2348 47.1244 46 48.3591 46 49.8823C46 51.4054 47.2347 52.6402 48.7579 52.6402H53.6632C55.1862 52.6402 56.4211 51.4056 56.4211 49.8823C56.4211 48.3591 55.1862 47.1244 53.6632 47.1244Z" fill="#3A484A"></path> <path d="M53.6632 71.4728H48.7579C47.2348 71.4728 46 72.7075 46 74.2307C46 75.7538 47.2347 76.9887 48.7579 76.9887H53.6632C55.1862 76.9887 56.4211 75.754 56.4211 74.2307C56.4211 72.7075 55.1862 71.4728 53.6632 71.4728Z" fill="#3A484A"></path> <path d="M53.6632 59.2985H48.7579C47.2348 59.2985 46 60.5331 46 62.0564C46 63.5794 47.2347 64.8143 48.7579 64.8143H53.6632C55.1862 64.8143 56.4211 63.5796 56.4211 62.0564C56.4211 60.5333 55.1862 59.2985 53.6632 59.2985Z" fill="#3A484A"></path> <path d="M53.6632 83.6472H48.7579C47.2348 83.6472 46 84.8818 46 86.4051C46 87.9281 47.2347 89.163 48.7579 89.163H53.6632C55.1862 89.163 56.4211 87.9283 56.4211 86.4051C56.4211 84.8818 55.1862 83.6472 53.6632 83.6472Z" fill="#3A484A"></path> <path d="M53.6632 95.8217H48.7579C47.2348 95.8217 46 97.0563 46 98.5796C46 100.103 47.2347 101.337 48.7579 101.337H53.6632C55.1862 101.337 56.4211 100.103 56.4211 98.5796C56.4211 97.0563 55.1862 95.8217 53.6632 95.8217Z" fill="#3A484A"></path> <path d="M53.6632 107.996H48.7579C47.2348 107.996 46 109.23 46 110.754C46 112.277 47.2347 113.512 48.7579 113.512H53.6632C55.1862 113.512 56.4211 112.277 56.4211 110.754C56.4211 109.231 55.1862 107.996 53.6632 107.996Z" fill="#3A484A"></path> <path d="M113.22 51.2099H77.643C75.7671 51.2099 74.2461 52.7452 74.2461 54.6392V68.4226C74.2461 70.3164 75.7669 71.8519 77.643 71.8519H113.22C115.095 71.8519 116.616 70.3166 116.616 68.4226V54.6392C116.616 52.7452 115.096 51.2099 113.22 51.2099Z" fill="#EFEDEE"></path> <path d="M107.595 59.4755H82.8899C82.0856 59.4755 81.4336 58.8235 81.4336 58.0192C81.4336 57.2149 82.0856 56.5629 82.8899 56.5629H107.595C108.399 56.5629 109.051 57.2149 109.051 58.0192C109.051 58.8233 108.399 59.4755 107.595 59.4755Z" fill="#3A484A"></path> <path d="M102.442 65.1331H88.0462C87.2419 65.1331 86.5898 64.4811 86.5898 63.6767C86.5898 62.8724 87.2419 62.2204 88.0462 62.2204H102.442C103.246 62.2204 103.898 62.8724 103.898 63.6767C103.898 64.4811 103.246 65.1331 102.442 65.1331Z" fill="#3A484A"></path> </g> <defs> <clipPath id="clip0"> <rect width="180" height="168.75" fill="white"></rect> </clipPath> </defs> </svg> 