<?xml version="1.0" encoding="UTF-8"?> <svg xmlns="http://www.w3.org/2000/svg" width="180" height="170" viewBox="0 0 180 170" fill="none"> <g clip-path="url(#clip0)"> <path d="M156.699 131.507C167.781 117.165 173.705 99.4942 173.511 81.3582C173.46 36.7886 140.433 0 86.7127 0C32.9921 0 0 36.7886 0 81.3582C0 125.928 32.8388 162.716 86.7127 162.716C106.113 162.716 122.788 157.887 136.209 149.663L180 169.286L156.699 131.507Z" fill="#FED400"></path> <path d="M78.042 117.942H53.7195C52.9525 117.885 52.2355 117.539 51.7124 116.974C51.1892 116.409 50.8984 115.667 50.8984 114.896C50.8984 114.126 51.1892 113.384 51.7124 112.819C52.2355 112.254 52.9525 111.908 53.7195 111.85H78.042C78.8091 111.908 79.526 112.254 80.0492 112.819C80.5724 113.384 80.8631 114.126 80.8631 114.896C80.8631 115.667 80.5724 116.409 80.0492 116.974C79.526 117.539 78.8091 117.885 78.042 117.942Z" fill="#735148"></path> <path d="M87.1555 84.4296V108.796C87.1869 109.215 87.1315 109.636 86.9929 110.033C86.8544 110.43 86.6355 110.794 86.3501 111.102C86.0648 111.41 85.719 111.656 85.3344 111.824C84.9499 111.992 84.5348 112.079 84.1152 112.079C83.6957 112.079 83.2806 111.992 82.8961 111.824C82.5115 111.656 82.1657 111.41 81.8803 111.102C81.5949 110.794 81.3761 110.43 81.2375 110.033C81.0989 109.636 81.0436 109.215 81.0749 108.796V84.4296C81.1324 83.6612 81.4776 82.9429 82.0415 82.4188C82.6053 81.8947 83.3461 81.6034 84.1152 81.6034C84.8844 81.6034 85.6252 81.8947 86.189 82.4188C86.7528 82.9429 87.0981 83.6612 87.1555 84.4296Z" fill="#735148"></path> <path d="M87.1568 84.4296V108.796C87.1613 109.197 87.0861 109.595 86.9356 109.966C86.785 110.338 86.5622 110.676 86.2799 110.96C85.9977 111.244 85.6618 111.469 85.2919 111.622C84.9219 111.775 84.5252 111.853 84.125 111.85V81.3923C84.5244 81.3877 84.9207 81.4632 85.2906 81.6142C85.6605 81.7652 85.9965 81.9887 86.279 82.2717C86.5614 82.5546 86.7846 82.8913 86.9353 83.2619C87.0861 83.6324 87.1614 84.0294 87.1568 84.4296Z" fill="#5C3D36"></path> <path d="M140.126 80.0272L129.106 74.9082C128.745 74.7384 128.354 74.6416 127.955 74.6235C127.556 74.6054 127.158 74.6662 126.783 74.8025C126.408 74.9388 126.064 75.148 125.77 75.4179C125.475 75.6879 125.237 76.0133 125.069 76.3756L119.959 87.4156C119.79 87.7774 119.693 88.1692 119.675 88.5684C119.657 88.9677 119.718 89.3665 119.854 89.7422C119.99 90.1179 120.199 90.463 120.468 90.7577C120.737 91.0524 121.062 91.291 121.424 91.4597L132.444 96.5787C132.806 96.7479 133.198 96.8438 133.597 96.8607C133.997 96.8777 134.395 96.8154 134.771 96.6774C135.146 96.5395 135.49 96.3285 135.783 96.0568C136.077 95.7851 136.314 95.458 136.481 95.0942L141.591 84.0541C141.76 83.6924 141.857 83.3006 141.875 82.9014C141.893 82.5021 141.832 82.1032 141.696 81.7276C141.56 81.3519 141.351 81.0068 141.082 80.7121C140.812 80.4174 140.487 80.1788 140.126 80.0101" fill="#5C3D36"></path> <path d="M131.847 76.2221L120.299 100.998C120.052 101.515 119.663 101.95 119.177 102.253C118.691 102.555 118.129 102.712 117.557 102.704C117.113 102.7 116.677 102.595 116.279 102.397L84.1219 87.4157L50.1249 71.6662C49.7644 71.5012 49.4404 71.2658 49.1717 70.9739C48.9031 70.6819 48.6953 70.3392 48.5605 69.9658C48.4257 69.5924 48.3666 69.1959 48.3866 68.7993C48.4066 68.4028 48.5054 68.0142 48.6771 67.6563L52.5095 59.3635L84.1219 66.1889L131.847 76.2221Z" fill="#D7C9C5"></path> <path d="M131.85 76.222L120.302 100.998C120.055 101.515 119.666 101.95 119.18 102.253C118.694 102.555 118.132 102.712 117.56 102.704C117.116 102.7 116.68 102.595 116.282 102.397L84.125 87.4156V66.0352L131.85 76.222Z" fill="#CCB9B2"></path> <path d="M139.752 66.4106L84.1241 40.4573L68.1306 32.9664C67.3962 32.6221 66.5557 32.5831 65.7927 32.8582C65.0298 33.1332 64.4067 33.6998 64.0598 34.4339L53.8403 56.3091L52.5117 59.227L84.1241 73.9697L110.388 86.2212C110.781 86.4298 111.222 86.5299 111.666 86.5113C112.175 86.503 112.675 86.3805 113.131 86.153L131.866 76.1709L139.889 71.8368C140.404 71.5743 140.836 71.1736 141.136 70.6795C141.437 70.1853 141.595 69.6172 141.592 69.0384C141.579 68.4788 141.413 67.9334 141.113 67.4612C140.813 66.9891 140.389 66.6081 139.889 66.3595" fill="#22ACE3"></path> <path d="M141.508 69.0896C141.511 69.6684 141.353 70.2365 141.052 70.7307C140.751 71.2248 140.319 71.6255 139.804 71.888L131.782 76.2221L113.046 86.2042C112.591 86.4317 112.09 86.5542 111.581 86.5625C111.138 86.5811 110.697 86.481 110.304 86.2724L84.125 74.0209V40.4573L139.753 66.4107C140.254 66.6593 140.677 67.0403 140.977 67.5125C141.278 67.9846 141.443 68.53 141.457 69.0896" fill="#22ACE3"></path> <path d="M78.2301 57.5206C77.7824 57.5226 77.3399 57.4234 76.9357 57.2306L71.4341 54.6028C71.0729 54.4336 70.7485 54.1948 70.4794 53.9C70.2102 53.6052 70.0017 53.2602 69.8657 52.8847C69.7297 52.5092 69.6688 52.1105 69.6866 51.7114C69.7044 51.3123 69.8005 50.9207 69.9693 50.5588C70.1382 50.1969 70.3766 49.8719 70.6708 49.6023C70.9651 49.3327 71.3095 49.1238 71.6843 48.9875C72.0592 48.8512 72.4571 48.7903 72.8555 48.8081C73.2539 48.8259 73.6448 48.9221 74.0061 49.0913L79.5076 51.6679C80.1395 51.9561 80.6535 52.4528 80.9637 53.075C81.274 53.6972 81.3617 54.4073 81.2121 55.0865C81.0625 55.7657 80.6848 56.3729 80.1421 56.8066C79.5993 57.2404 78.9244 57.4743 78.2301 57.4694" fill="#ED6D00"></path> <path d="M53.719 136.609H41.3534C40.527 136.619 39.7287 136.309 39.1255 135.743C38.5224 135.177 38.1611 134.399 38.1172 133.572V96.6299C38.161 95.8015 38.5217 95.0219 39.1244 94.4531C39.7271 93.8843 40.5254 93.57 41.3534 93.5755H53.719C54.1186 93.5755 54.5142 93.6546 54.8832 93.8083C55.2521 93.962 55.5871 94.1873 55.8689 94.4711C56.1506 94.755 56.3736 95.0918 56.5249 95.4623C56.6763 95.8328 56.753 96.2296 56.7508 96.6299V133.572C56.7531 133.972 56.6762 134.368 56.5246 134.737C56.3731 135.107 56.1498 135.442 55.8678 135.725C55.5859 136.007 55.2507 136.231 54.8819 136.383C54.513 136.535 54.1178 136.612 53.719 136.609Z" fill="#D7C9C5"></path> <path d="M84.123 105.793C82.3159 105.789 80.5485 106.323 79.0446 107.327C77.5406 108.331 76.3679 109.759 75.6748 111.431C74.9817 113.103 74.7994 114.943 75.1512 116.719C75.5029 118.495 76.3727 120.126 77.6505 121.406C78.9283 122.686 80.5566 123.558 82.3291 123.91C84.1016 124.262 85.9387 124.08 87.6076 123.385C89.2764 122.691 90.7021 121.516 91.7039 120.009C92.7058 118.503 93.2388 116.732 93.2354 114.922C93.2354 112.501 92.2754 110.179 90.5665 108.467C88.8576 106.755 86.5398 105.793 84.123 105.793Z" fill="#D7C9C5"></path> <path d="M93.2374 114.888C93.2397 116.088 93.0056 117.277 92.5487 118.386C92.0917 119.496 91.4209 120.504 90.5745 121.354C89.7281 122.203 88.7228 122.877 87.6161 123.337C86.5094 123.797 85.3231 124.034 84.125 124.034V105.793C85.3223 105.791 86.5082 106.025 87.6148 106.483C88.7214 106.941 89.7268 107.614 90.5735 108.462C91.4201 109.31 92.0912 110.317 92.5483 111.426C93.0055 112.534 93.2397 113.722 93.2374 114.922" fill="#CCB9B2"></path> </g> <defs> <clipPath id="clip0"> <rect width="180" height="169.286" fill="white"></rect> </clipPath> </defs> </svg> 