<?xml version="1.0" encoding="UTF-8"?> <svg xmlns="http://www.w3.org/2000/svg" width="180" height="169" viewBox="0 0 180 169" fill="none"> <g clip-path="url(#clip0)"> <path d="M156.714 131.152C167.79 116.844 173.713 99.2237 173.527 81.138C173.476 36.6891 140.447 0 86.7209 0C32.9952 0 0 36.6891 0 81.138C0 125.587 32.8248 162.276 86.7209 162.276C106.123 162.276 122.782 157.46 136.222 149.275L180 168.828L156.714 131.152Z" fill="#FED400"></path> <path d="M110.056 57.6543L111.521 48.448C111.642 47.6747 111.609 46.8852 111.425 46.1245C111.241 45.3638 110.908 44.6468 110.446 44.0146C109.984 43.3825 109.402 42.8475 108.733 42.4402C108.064 42.0329 107.321 41.7614 106.547 41.6411L94.1459 39.6671L91.8633 42.1346L93.2771 45.2147L106.019 47.2398L104.503 56.7694L110.056 57.6543Z" fill="#22ACE3"></path> <path d="M74.9493 42.6621L73.4844 51.8684L79.0375 52.7363L80.5536 43.2067L93.2951 45.2147L94.1638 39.6671L81.763 37.7101C80.2023 37.4652 78.608 37.8492 77.3305 38.7777C76.0529 39.7062 75.1965 41.1033 74.9493 42.6621Z" fill="#22ACE3"></path> <path d="M133.512 59.458L127.601 58.5221L118.59 91.5014L116.887 125.638L122.781 126.574C124.341 126.814 125.932 126.428 127.209 125.501C128.485 124.573 129.343 123.179 129.594 121.622L138.469 66.367C138.71 64.8085 138.323 63.2182 137.395 61.9431C136.466 60.6679 135.07 59.8113 133.512 59.5601" fill="#22ACE3"></path> <path d="M127.602 58.5392L92.0512 52.9065L83.0401 85.8688L81.4219 120.005L116.972 125.638L127.602 58.5392Z" fill="#E3E8F1"></path> <path d="M56.5004 47.2908L47.4893 80.2531L45.8711 114.39L81.4214 120.022L92.0507 52.9064L56.5004 47.2908Z" fill="#FCFCFD"></path> <path d="M50.6067 46.3549L56.5005 47.2738L45.8712 114.39L39.9604 113.454C38.402 113.203 37.0063 112.346 36.0777 111.071C35.1491 109.796 34.7629 108.205 35.0034 106.647L43.776 51.3069C44.0232 49.748 44.8796 48.3509 46.1572 47.4224C47.4347 46.4939 49.029 46.11 50.5897 46.3549" fill="#22ACE3"></path> <path d="M90.1775 102.835L91.6935 93.2883L101.25 94.8028C101.789 94.8866 102.34 94.7551 102.783 94.4367C103.226 94.1183 103.525 93.6385 103.617 93.1011L104.844 85.3923C104.927 84.8556 104.795 84.3076 104.476 83.8677C104.157 83.4279 103.677 83.1318 103.14 83.0439L93.5843 81.5294L95.1003 71.9658C95.1839 71.429 95.0517 70.881 94.7327 70.4412C94.4136 70.0013 93.9335 69.7052 93.3969 69.6174L89.5472 69.0048L83.0742 85.8858L83.9941 103.941L87.8608 104.554C88.1272 104.597 88.3995 104.588 88.6621 104.526C88.9248 104.464 89.1725 104.35 89.3911 104.192C89.6096 104.034 89.7946 103.834 89.9355 103.604C90.0763 103.374 90.1701 103.118 90.2115 102.852" fill="#492B29"></path> <path d="M81.7647 79.6404L72.1915 78.1259C71.6549 78.047 71.1086 78.1808 70.6694 78.4987C70.2302 78.8167 69.9328 79.2936 69.8408 79.8276L68.6143 87.5534C68.5308 88.0902 68.6629 88.6382 68.982 89.078C69.301 89.5179 69.7812 89.814 70.3177 89.9018L79.8739 91.4163L78.3579 100.963C78.2743 101.5 78.4065 102.048 78.7255 102.488C79.0446 102.927 79.5247 103.224 80.0613 103.311L83.911 103.924L89.4471 68.9877L85.5974 68.375C85.0601 68.2916 84.5116 68.4236 84.0713 68.7423C83.631 69.0611 83.3346 69.5407 83.2467 70.0768L81.7647 79.6404Z" fill="#492B29"></path> </g> <defs> <clipPath id="clip0"> <rect width="180" height="168.828" fill="white"></rect> </clipPath> </defs> </svg> 