<?xml version="1.0" encoding="UTF-8"?> <svg xmlns="http://www.w3.org/2000/svg" width="46" height="46" viewBox="0 0 46 46" fill="none"> <path d="M45.6922 14.5803C45.411 13.9237 44.953 13.3591 44.3697 12.9499C43.7863 12.5408 43.1009 12.3035 42.3905 12.2647L30.9607 11.6499L24.9842 1.83248C24.6141 1.22274 24.0814 0.729356 23.4465 0.408239C22.8115 0.0871221 22.0998 -0.0488845 21.3918 0.0156337C20.6839 0.0801518 20.0081 0.342615 19.4411 0.773275C18.874 1.20394 18.4384 1.78557 18.1835 2.45226L14.0577 13.187L2.91906 15.8694C2.22814 16.0364 1.59747 16.3941 1.0983 16.9022C0.599123 17.4104 0.251345 18.0486 0.094257 18.7449C-0.0628308 19.4412 -0.0229668 20.1678 0.209345 20.8425C0.441656 21.5172 0.857156 22.1132 1.4089 22.5631L10.2922 29.8171L9.36932 41.2807C9.32702 41.8082 9.39405 42.3388 9.56617 42.8389C9.73829 43.3391 10.0118 43.7979 10.3693 44.1865C10.7269 44.5751 11.1608 44.885 11.6436 45.0966C12.1264 45.3082 12.6476 45.4169 13.1743 45.4159C13.9088 45.4196 14.628 45.2058 15.2422 44.8011L24.8658 38.5487L35.4468 42.9615C35.9156 43.1584 36.4192 43.2579 36.9273 43.2541H36.9717C37.4729 43.2554 37.9694 43.1573 38.4328 42.9656C38.8961 42.7738 39.3173 42.492 39.6721 42.1365C40.027 41.7809 40.3085 41.3585 40.5006 40.8934C40.6927 40.4284 40.7915 39.9298 40.7915 39.4263C40.7955 38.8845 40.6827 38.3483 40.4609 37.8545L37.6429 27.3231L45.0851 18.5816C45.5474 18.0377 45.8491 17.3749 45.9564 16.6679C46.0636 15.9609 45.9721 15.2378 45.6922 14.5803Z" fill="#FCC600"></path> </svg> 