<?xml version="1.0" encoding="UTF-8"?> <svg xmlns="http://www.w3.org/2000/svg" width="284" height="426" viewBox="0 0 284 426" fill="none"> <path d="M211.14 235.205L271.973 203.434L267.227 194.356L206.395 226.056" fill="#FADFCB"></path> <path d="M170.875 256.892H217.398C217.398 256.892 215.528 220.871 205.318 208.983L168.861 228.003" fill="#FCC600"></path> <path d="M263.2 184.775C265.022 183.837 267.141 183.66 269.094 184.28C271.047 184.901 272.676 186.27 273.626 188.089L283.117 206.316C283.59 207.218 283.88 208.205 283.97 209.221C284.059 210.236 283.947 211.259 283.639 212.23C283.332 213.202 282.835 214.103 282.177 214.88C281.52 215.658 280.715 216.298 279.81 216.762C278.919 217.237 277.943 217.53 276.938 217.624C275.933 217.718 274.92 217.611 273.956 217.309C272.993 217.008 272.099 216.517 271.327 215.867C270.554 215.216 269.918 214.419 269.455 213.52L259.964 195.221C259.488 194.323 259.195 193.339 259.1 192.327C259.005 191.315 259.111 190.294 259.412 189.323C259.713 188.352 260.202 187.45 260.852 186.67C261.502 185.889 262.3 185.245 263.2 184.775Z" fill="#FADFCB"></path> <path d="M68.1221 345.719L75.6003 414.16L87.0333 412.936L79.4832 344.494" fill="#FADFCB"></path> <path d="M63.5158 301.486L46.7617 344.713C46.7617 344.713 80.7732 355.951 96.0173 350.764L91.5591 309.771L63.5158 301.486Z" fill="#FCC600"></path> <path d="M59.7788 59.6314L67.8323 33.3354L57.9812 30.3096L49.9277 56.6056" fill="#FADFCB"></path> <path d="M106.952 122.454C111.938 118.323 116.557 113.767 120.758 108.837C124.448 104.686 127.568 100.058 130.033 95.0771C131.378 92.3324 132.369 89.4273 132.982 86.4319C133.678 83.5818 133.873 80.6318 133.557 77.7146C133.352 75.2062 132.668 72.7605 131.543 70.5102C130.401 68.1132 128.87 65.9223 127.013 64.0263C107.886 44.9347 92.139 28.7969 92.139 28.7969L84.5889 36.0013C84.8516 36.2172 85.0924 36.4585 85.3079 36.7217C88.6156 40.0357 102.997 54.5165 119.391 71.4468C120.441 72.5282 121.314 73.7681 121.98 75.121C122.499 76.2876 122.839 77.5265 122.987 78.7952C123.146 80.5085 123.025 82.2364 122.627 83.9103C121.636 87.5752 120.057 91.0545 117.953 94.2126C114.683 99.226 110.873 103.865 106.592 108.045L102.062 112.224L100.768 113.304L101.127 113.736L100.696 113.809L101.055 114.241L100.696 113.809L106.952 122.454Z" fill="#FADFCB"></path> <path d="M92.2081 100.84C92.2081 100.84 113.78 77.9302 101.053 50.4095L109.753 43.2051C109.753 43.2051 139.666 65.8989 139.235 83.8378C138.125 96.3145 133.679 108.261 126.363 118.419L51.6532 126.92C51.6532 126.92 27.0613 99.3992 52.4441 48.2481C52.4441 48.2481 61.0728 42.8449 70.3487 54.516C62.7267 77.2097 93.7181 92.483 91.9205 100.696" fill="#EC6A36"></path> <path d="M26.124 225.479C31.093 237.665 39.2998 248.255 49.853 256.097C49.853 256.097 68.6204 230.089 84.1521 230.522L99.6838 222.669L116.51 226.992C131.538 223.317 155.411 244.93 155.411 244.93C164.394 232.657 170.735 218.649 174.034 203.793C174.034 203.793 170.295 205.234 144.841 190.177C144.841 190.177 139.879 141.764 144.841 111.433C126.593 111.307 108.351 112.148 90.1922 113.955H88.7541H87.3159C68.846 116.096 50.5067 119.247 32.3798 123.393C43.8129 152.21 48.5587 200.335 48.5587 200.335C26.9869 220.652 26.124 225.479 26.124 225.479Z" fill="#FCC600"></path> <path d="M46.3339 29.9534C53.7403 36.005 69.4157 39.5352 74.0177 28.8007C78.6197 18.0661 61.7218 16.121 49.2821 12.2306C36.8424 8.34024 17.7154 6.25097 46.3339 29.9534Z" fill="#804406"></path> <path d="M96.4482 19.0724C100.331 27.7177 99.6121 43.8555 87.8195 45.4404C76.0269 47.0254 79.1189 30.3112 78.6155 17.2713C78.1122 4.2314 81.1323 -14.8602 96.4482 19.0724Z" fill="#804406"></path> <path d="M182.233 214.31C197.477 260.778 166.342 312.794 125.931 326.122C85.5197 339.45 29.5769 316.108 14.4048 269.639C10.7787 258.594 9.35963 246.941 10.2285 235.346C11.0974 223.75 14.2372 212.44 19.4687 202.061C24.7002 191.682 31.9209 182.436 40.7185 174.853C49.5162 167.269 59.7186 161.496 70.743 157.863C81.7675 154.23 93.3983 152.809 104.971 153.679C116.544 154.55 127.833 157.696 138.192 162.937C148.552 168.179 157.779 175.413 165.348 184.228C172.917 193.042 178.679 203.264 182.305 214.31" fill="#FADFCB"></path> <path d="M93.5 329.435V329.795C98.9532 330.3 104.441 330.3 109.895 329.795C114.976 329.261 119.989 328.198 124.851 326.625H125.282C120.6 328.122 115.784 329.159 110.901 329.723C105.211 330.3 99.4776 330.3 93.7876 329.723" fill="#492B29"></path> <path d="M68.334 324.176C76.4948 327.242 85.0341 329.181 93.7168 329.939V329.579C85.6363 328.778 77.6884 326.963 70.0597 324.176H68.334Z" fill="#F7AB00"></path> <path d="M159.368 303.575C150.056 309.053 140.199 313.544 129.958 316.975C119.71 320.452 109.132 322.866 98.3915 324.18C88.9675 325.042 79.4846 325.042 70.0605 324.18C77.6956 326.917 85.6434 328.684 93.7176 329.439C99.4076 330.016 105.141 330.016 110.831 329.439C115.714 328.875 120.53 327.838 125.212 326.341C138.22 321.736 149.865 313.933 159.08 303.647" fill="#F7C9AE"></path> <path d="M65.3848 264.38C65.0074 263.217 64.9822 261.968 65.3125 260.79C65.6427 259.612 66.3135 258.558 67.2404 257.762C68.1673 256.966 69.3088 256.462 70.5209 256.315C71.733 256.167 72.9616 256.383 74.0517 256.934C75.1418 257.485 76.0447 258.347 76.6465 259.412C77.2484 260.476 77.5222 261.695 77.4335 262.915C77.3448 264.135 76.8976 265.302 76.1483 266.268C75.3989 267.234 74.3809 267.956 73.2226 268.343C71.6585 268.845 69.9599 268.712 68.4935 267.97C67.0271 267.229 65.9105 265.939 65.3848 264.38Z" fill="#492B29"></path> <path d="M126.294 244.28C125.795 242.723 125.931 241.031 126.671 239.573C127.412 238.116 128.698 237.011 130.249 236.5C131.774 236.09 133.397 236.28 134.786 237.03C136.175 237.78 137.225 239.034 137.721 240.535C138.218 242.036 138.122 243.671 137.455 245.104C136.788 246.536 135.599 247.659 134.132 248.243C133.359 248.512 132.539 248.622 131.722 248.567C130.905 248.513 130.107 248.294 129.376 247.924C128.645 247.555 127.995 247.042 127.466 246.416C126.937 245.79 126.538 245.064 126.294 244.28Z" fill="#492B29"></path> <path d="M66.8244 285.847C65.5301 281.813 69.6287 276.842 76.1002 274.753C82.5718 272.663 88.7557 274.176 90.05 278.211C91.3443 282.245 87.2456 287.144 80.846 289.305C74.4464 291.467 68.1906 289.882 66.4648 285.847" fill="#F3B2B4"></path> <path d="M126.364 266.544C125.069 262.509 129.168 257.538 135.568 255.449C141.967 253.36 148.295 254.873 149.589 258.835C150.884 262.797 146.785 267.84 140.385 269.93C133.986 272.019 127.658 270.506 126.364 266.544Z" fill="#F3B2B4"></path> <path d="M137.293 274.681C135.464 281.27 131.616 287.116 126.292 291.395C121.144 295.434 114.962 297.931 108.459 298.6C99.9535 299.602 91.3974 297.194 84.658 291.899C84.283 291.65 83.828 291.55 83.3831 291.62C82.9382 291.69 82.5359 291.925 82.2556 292.279C81.9754 292.632 81.8377 293.078 81.8698 293.528C81.9019 293.978 82.1014 294.399 82.4289 294.709C89.9346 300.5 99.4181 303.089 108.818 301.914C116.026 301.136 122.862 298.312 128.521 293.773C134.4 289.052 138.651 282.601 140.673 275.329C140.739 275.102 140.76 274.864 140.734 274.629C140.708 274.394 140.637 274.166 140.523 273.959C140.41 273.752 140.256 273.569 140.072 273.421C139.888 273.272 139.677 273.162 139.45 273.096C139.003 272.984 138.529 273.048 138.127 273.276C137.726 273.504 137.427 273.878 137.293 274.321" fill="#EA5C56"></path> <path d="M197.549 223.317C198.361 225.767 198.429 228.403 197.744 230.892C197.06 233.381 195.653 235.61 193.702 237.297C191.752 238.984 189.345 240.053 186.788 240.369C184.23 240.684 181.637 240.232 179.336 239.069C177.036 237.907 175.131 236.086 173.864 233.838C172.597 231.59 172.025 229.016 172.22 226.441C172.415 223.867 173.368 221.408 174.958 219.377C176.549 217.346 178.705 215.834 181.155 215.032C184.425 213.961 187.986 214.231 191.059 215.784C194.131 217.337 196.465 220.045 197.549 223.317Z" fill="#FADFCB"></path> <path d="M30.0102 278.144C30.8223 280.594 30.8903 283.231 30.2054 285.72C29.5206 288.208 28.1138 290.438 26.1632 292.125C24.2127 293.812 21.8063 294.881 19.2488 295.196C16.6914 295.511 14.098 295.059 11.7973 293.897C9.49664 292.734 7.5922 290.913 6.3253 288.665C5.05839 286.417 4.48605 283.843 4.68078 281.268C4.87552 278.694 5.82857 276.236 7.41917 274.204C9.00978 272.173 11.1664 270.661 13.6156 269.859C16.8864 268.788 20.4474 269.058 23.5197 270.611C26.5921 272.164 28.9257 274.872 30.0102 278.144Z" fill="#FADFCB"></path> <path d="M13.615 269.858C13.615 269.858 25.5514 273.748 31.7353 266.544C37.9192 259.34 28.2119 244.931 28.2119 244.931C28.2119 244.931 42.5931 236.718 45.3255 227.28C47.1685 220.228 48.0394 212.956 47.9141 205.667C59.626 212.718 73.2847 215.824 86.8871 214.528C98.8992 213.653 110.429 209.436 120.18 202.353C120.18 202.353 137.509 218.419 148.367 211.214L159.224 204.01C159.224 204.01 159.224 218.419 166.056 221.012C172.887 223.606 181.156 214.528 181.156 214.528C184.708 209.01 186.413 202.502 186.025 195.948C185.638 189.393 183.176 183.133 178.999 178.074C171.048 167.816 159.559 160.905 146.785 158.694C140.785 150.392 132.134 144.393 122.265 141.692C106.733 138.378 101.628 148.464 101.628 148.464C98.2886 145.032 94.2222 142.395 89.7292 140.749C85.2361 139.103 80.4313 138.49 75.6698 138.954C71.1226 139.907 66.856 141.897 63.2019 144.771C59.5478 147.645 56.6046 151.325 54.6014 155.524C50.1527 154.545 45.5518 154.48 41.0775 155.335C36.6032 156.189 32.3486 157.945 28.5714 160.496C16.9946 169.141 19.4394 187.656 19.4394 187.656C19.4394 187.656 1.3191 199.471 0.0247931 214.312C-0.13592 225.223 1.81766 236.062 5.77727 246.228C5.77727 246.228 3.11675 267.048 13.615 269.858Z" fill="#804406"></path> <path d="M95.8026 414.228C95.9113 415.268 95.8099 416.319 95.5044 417.318C95.1989 418.317 94.6955 419.245 94.0244 420.045C93.3533 420.845 92.5282 421.501 91.5983 421.975C90.6684 422.449 89.6527 422.73 88.612 422.802L68.766 425.035C67.7285 425.144 66.6798 425.042 65.6823 424.736C64.6849 424.43 63.7593 423.926 62.9606 423.253C62.162 422.581 61.5068 421.754 61.0341 420.822C60.5613 419.891 60.2808 418.873 60.2092 417.831C60.1005 416.795 60.2023 415.748 60.5086 414.753C60.8149 413.757 61.3193 412.835 61.9913 412.04C62.6633 411.246 63.489 410.596 64.4185 410.13C65.3481 409.664 66.3623 409.392 67.3998 409.329L87.6053 407.096C88.6391 406.987 89.6841 407.089 90.6773 407.396C91.6706 407.703 92.5915 408.208 93.3844 408.881C94.1774 409.555 94.826 410.382 95.291 411.313C95.7561 412.245 96.0279 413.261 96.0902 414.3L95.8026 414.228Z" fill="#FADFCB"></path> </svg> 