<?xml version="1.0" encoding="UTF-8"?> <svg xmlns="http://www.w3.org/2000/svg" width="112" height="89" viewBox="0 0 112 89" fill="none"> <path d="M60.2303 33.0948C68.1403 26.8448 78.7203 20.6748 84.2903 12.1748C88.4803 5.77481 81.2903 -2.82519 74.2903 0.904811C64.8903 5.90481 57.0403 16.5548 50.8103 25.0048C47.3603 29.7148 39.4803 38.8248 42.4803 45.2548C42.5379 45.3755 42.634 45.4735 42.7536 45.5333C42.8732 45.5931 43.0093 45.6112 43.1403 45.5848C49.4303 44.5848 55.4403 36.8548 60.2103 33.0948" fill="#FCC600"></path> <path d="M100.79 41.2247C109.53 35.3947 103.49 23.2247 93.5603 26.7047C80.0103 31.4247 55.6603 41.6347 50.9103 56.6647C50.7823 57.0615 50.7595 57.4848 50.844 57.8932C50.9286 58.3016 51.1177 58.681 51.3928 58.9944C51.6679 59.3078 52.0196 59.5444 52.4135 59.6812C52.8075 59.818 53.2302 59.8502 53.6403 59.7747C61.6403 57.7047 69.5003 53.5847 77.2903 50.6347C84.7703 47.7847 94.0903 45.6947 100.79 41.2247Z" fill="#FCC600"></path> <path d="M106.62 60.0147C99.2501 58.5047 90.2401 61.5947 83.0101 62.9047C76.1801 64.1347 67.4001 64.9047 61.6601 69.1647C60.1101 70.3347 60.5601 72.8147 62.0101 73.8047C67.3001 77.3947 76.1701 75.8047 82.0801 75.2347C89.5201 74.5047 98.5901 75.0547 105.78 73.0547C111.57 71.4547 113.96 61.4347 106.65 59.9747" fill="#FCC600"></path> <path d="M34.7 71.0146C34.696 67.5835 33.6749 64.2306 31.7656 61.3798C29.8563 58.5291 27.1446 56.3084 23.9734 54.9986C20.8022 53.6888 17.3138 53.3486 13.9493 54.0211C10.5847 54.6937 7.49515 56.3487 5.07111 58.7769C2.64706 61.2051 0.997412 64.2976 0.330707 67.6632C-0.335997 71.0289 0.0101835 74.5167 1.32548 77.6857C2.64078 80.8546 4.86614 83.5625 7.72021 85.4668C10.5743 87.3712 13.9289 88.3866 17.36 88.3846C19.6396 88.3846 21.8969 87.9351 24.0027 87.0618C26.1084 86.1885 28.0213 84.9086 29.6318 83.2952C31.2424 81.6819 32.519 79.7668 33.3887 77.6595C34.2583 75.5523 34.7039 73.2942 34.7 71.0146Z" fill="#FCC600"></path> </svg> 