<?xml version="1.0" encoding="UTF-8"?> <svg xmlns="http://www.w3.org/2000/svg" width="207" height="53" viewBox="0 0 207 53" fill="none"> <path d="M9.04471 10.3403V12.8377H19.1805V19.2931H9.04471V27.8954H0.77832V3.88492H20.495V10.3403H9.04471Z" fill="#22ACE3"></path> <path d="M25.4169 17.9202V3.88492H33.5956V18.2123C33.5675 18.6128 33.6223 19.0147 33.7564 19.393C33.8906 19.7714 34.1013 20.118 34.3754 20.4113C34.6495 20.7046 34.981 20.9382 35.3495 21.0976C35.7179 21.257 36.1152 21.3388 36.5166 21.3378C36.9225 21.355 37.3274 21.2842 37.7034 21.1303C38.0795 20.9764 38.4178 20.7431 38.6952 20.4462C38.9727 20.1494 39.1826 19.7961 39.3108 19.4105C39.4389 19.0249 39.4822 18.6162 39.4376 18.2123V3.88492H47.6748V17.9202C47.6748 24.2588 43.2933 28.2459 36.5166 28.2459C29.7399 28.2459 25.373 24.2588 25.373 17.9202" fill="#22ACE3"></path> <path d="M72.3571 27.8954L61.4326 17.8472V27.8954H53.2393V3.88492H56.6422L67.5959 13.9769V3.88492H75.8039V27.8954H72.3571Z" fill="#22ACE3"></path> <path d="M83.1213 18.8988C85.407 20.594 88.1264 21.6068 90.9641 21.8197C92.7313 21.8197 93.2279 21.3232 93.2279 20.6367C93.2279 19.9503 92.1764 19.3661 90.6428 19.0594C86.8017 18.3438 80.4194 17.5989 80.4194 11.5233C80.4194 5.44762 86.1737 3.54898 90.4676 3.54898C94.298 3.47005 98.0043 4.90849 100.779 7.55073L97.3611 12.5018C95.3172 10.9716 92.858 10.0959 90.3069 9.98975C89.1239 9.98975 88.5689 10.4425 88.5689 11.1581C88.5689 11.8738 89.7519 12.4142 91.6214 12.6186C96.0028 13.2759 101.465 14.0791 101.465 20.1256C101.465 25.5732 97.3027 28.2313 91.3585 28.2313C87.0046 28.2878 82.7936 26.6787 79.5869 23.733L83.1213 18.8988Z" fill="#22ACE3"></path> <path d="M122.481 17.5259H131.244C130.28 24.8284 125.753 28.5965 117.881 28.5965C110.009 28.5965 104.736 23.5139 104.736 15.9194C104.736 8.32482 110.009 3.24231 117.881 3.24231C125.753 3.24231 130.28 7.03959 131.244 14.3128H122.481C122.351 13.2547 121.828 12.284 121.017 11.592C120.206 10.8999 119.165 10.5367 118.1 10.574C115.179 10.574 113.339 12.6917 113.339 15.9194C113.339 19.1471 115.223 21.2648 118.1 21.2648C119.165 21.302 120.206 20.9389 121.017 20.2468C121.828 19.5547 122.351 18.584 122.481 17.5259Z" fill="#22ACE3"></path> <path d="M207 21.4254V27.8954H187.619V3.88492H195.886V21.4254H207Z" fill="#22ACE3"></path> <path d="M152.101 17.745H143.133C142.717 17.745 142.318 17.5796 142.023 17.2852C141.729 16.9907 141.563 16.5914 141.563 16.175C141.563 15.7586 141.729 15.3592 142.023 15.0648C142.318 14.7704 142.717 14.6049 143.133 14.6049H152.159C152.574 14.6049 152.971 14.7696 153.264 15.0627C153.557 15.3557 153.722 15.7532 153.722 16.1677C153.722 16.5821 153.557 16.9796 153.264 17.2727C152.971 17.5658 152.574 17.7304 152.159 17.7304L152.101 17.745ZM147.515 3.4906C139.38 3.4906 134.37 9.09889 134.37 15.8902C134.328 18.7166 135.262 21.4712 137.014 23.6892L133.494 29.2099L140.212 26.3765C142.424 27.6734 144.951 28.3354 147.515 28.2898C155.621 28.2898 160.659 22.7107 160.659 15.8902C160.659 9.06968 155.679 3.4906 147.515 3.4906Z" fill="#22ACE3"></path> <path d="M5.30603 42.3543C5.3122 42.0893 5.26406 41.8258 5.16458 41.5801C5.0651 41.3344 4.91637 41.1116 4.72757 40.9256C4.53876 40.7395 4.31387 40.594 4.06673 40.4981C3.81959 40.4023 3.55545 40.358 3.29055 40.368C2.73696 40.3478 2.19722 40.5437 1.78559 40.9145C1.37397 41.2852 1.12278 41.8016 1.08521 42.3543H5.30603ZM0.00444655 42.6902C-0.0188959 42.2551 0.0498555 41.82 0.206206 41.4133C0.362556 41.0066 0.602985 40.6375 0.911772 40.33C1.22056 40.0226 1.59075 39.7839 1.99815 39.6293C2.40554 39.4748 2.84097 39.408 3.27595 39.4333C3.70969 39.4123 4.14286 39.4851 4.54597 39.6465C4.94908 39.808 5.31268 40.0544 5.61203 40.369C5.91137 40.6836 6.13943 41.0589 6.28068 41.4696C6.42194 41.8802 6.47307 42.3164 6.43061 42.7486V43.1283H1.11442C1.18326 43.6664 1.45055 44.1593 1.8639 44.5105C2.27726 44.8617 2.80689 45.0459 3.34897 45.027C3.68047 45.0522 4.01278 44.9899 4.31265 44.8464C4.61253 44.7029 4.86946 44.4831 5.05775 44.2091H6.24075C5.99147 44.7619 5.57633 45.2234 5.05292 45.5296C4.52951 45.8358 3.92378 45.9715 3.31976 45.9179C2.88435 45.9469 2.4477 45.884 2.03819 45.7333C1.62867 45.5825 1.25546 45.3473 0.942786 45.0429C0.630115 44.7385 0.384986 44.3717 0.223325 43.9664C0.061665 43.561 -0.0129098 43.1262 0.00444655 42.6902Z" fill="#22ACE3"></path> <path d="M14.142 42.6902C14.1578 42.3933 14.1134 42.0964 14.0114 41.8171C13.9095 41.5379 13.7522 41.2821 13.549 41.0652C13.3457 40.8483 13.1007 40.6747 12.8286 40.5549C12.5566 40.4351 12.2631 40.3715 11.9659 40.368C11.3837 40.4143 10.8403 40.6782 10.444 41.1073C10.0478 41.5363 9.8277 42.0989 9.8277 42.6829C9.8277 43.2669 10.0478 43.8295 10.444 44.2585C10.8403 44.6875 11.3837 44.9515 11.9659 44.9978C12.2624 44.9962 12.5556 44.9345 12.8276 44.8162C13.0996 44.698 13.3447 44.5258 13.5482 44.3101C13.7517 44.0943 13.9092 43.8395 14.0113 43.561C14.1133 43.2826 14.1578 42.9863 14.142 42.6902ZM14.142 40.6601V35.7967H15.252V45.7426H14.142V44.7203C13.8876 45.0929 13.5453 45.3971 13.1454 45.606C12.7455 45.8149 12.3002 45.922 11.849 45.9179C11.0286 45.8627 10.2598 45.4979 9.69822 44.8973C9.13663 44.2967 8.82422 43.5051 8.82422 42.6829C8.82422 41.8606 9.13663 41.0691 9.69822 40.4685C10.2598 39.8679 11.0286 39.503 11.849 39.4479C12.3018 39.4441 12.7483 39.5528 13.1486 39.7644C13.5488 39.976 13.8902 40.2838 14.142 40.6601Z" fill="#22ACE3"></path> <path d="M17.9103 43.1575V39.6232H18.991V43.0845C18.9802 43.3386 19.0231 43.5921 19.1167 43.8285C19.2104 44.0649 19.3528 44.2789 19.5346 44.4566C19.7165 44.6344 19.9337 44.7718 20.1722 44.86C20.4107 44.9482 20.6651 44.9852 20.9189 44.9686C21.1738 44.9873 21.4298 44.952 21.6701 44.8647C21.9103 44.7775 22.1294 44.6404 22.3129 44.4624C22.4964 44.2845 22.6401 44.0697 22.7346 43.8322C22.8291 43.5947 22.8723 43.3399 22.8613 43.0845V39.6232H23.9567V43.1575C23.9587 43.5446 23.8792 43.9278 23.7235 44.2821C23.5677 44.6365 23.3392 44.9541 23.0527 45.2145C22.7662 45.4748 22.4282 45.6719 22.0606 45.7931C21.693 45.9143 21.304 45.9568 20.9189 45.9179C20.5344 45.9569 20.1461 45.9144 19.7792 45.7931C19.4124 45.6718 19.0752 45.4744 18.7899 45.2139C18.5045 44.9534 18.2774 44.6355 18.1233 44.2812C17.9692 43.9268 17.8916 43.5439 17.8957 43.1575" fill="#22ACE3"></path> <path d="M26.2931 42.6902C26.2735 42.2497 26.3472 41.8101 26.5096 41.4001C26.6719 40.9902 26.9191 40.6193 27.235 40.3117C27.5509 40.0041 27.9283 39.7668 28.3423 39.6154C28.7564 39.464 29.1979 39.4019 29.6377 39.4333C30.3253 39.3755 31.0103 39.5707 31.5642 39.9821C32.1181 40.3935 32.5029 40.9929 32.6463 41.6678H31.5363C31.4147 41.2677 31.1603 40.9209 30.8152 40.6846C30.4701 40.4483 30.0548 40.3366 29.6377 40.368C29.0295 40.368 28.4463 40.6096 28.0163 41.0396C27.5863 41.4696 27.3447 42.0528 27.3447 42.661C27.3447 43.2691 27.5863 43.8523 28.0163 44.2823C28.4463 44.7124 29.0295 44.9539 29.6377 44.9539C30.0519 44.9925 30.4669 44.8872 30.8126 44.6558C31.1584 44.4244 31.414 44.081 31.5363 43.6833H32.6463C32.5027 44.3571 32.1174 44.9549 31.563 45.3639C31.0087 45.7729 30.3238 45.9648 29.6377 45.9033C29.2012 45.9364 28.7626 45.8771 28.3506 45.7291C27.9386 45.5812 27.5625 45.348 27.2468 45.0447C26.9312 44.7414 26.683 44.375 26.5187 43.9692C26.3544 43.5635 26.2775 43.1276 26.2931 42.6902Z" fill="#22ACE3"></path> <path d="M40.3431 42.6902C40.361 42.3941 40.3184 42.0974 40.2182 41.8182C40.1179 41.539 39.962 41.2831 39.7599 41.066C39.5578 40.8488 39.3137 40.675 39.0424 40.555C38.7711 40.4351 38.4782 40.3714 38.1816 40.368C37.5994 40.4143 37.056 40.6782 36.6598 41.1073C36.2635 41.5363 36.0434 42.0989 36.0434 42.6829C36.0434 43.2669 36.2635 43.8295 36.6598 44.2585C37.056 44.6875 37.5994 44.9515 38.1816 44.9978C38.4769 44.9943 38.7685 44.9311 39.0388 44.812C39.3091 44.6929 39.5525 44.5204 39.7544 44.3048C39.9563 44.0893 40.1125 43.8351 40.2137 43.5577C40.3149 43.2802 40.3589 42.9851 40.3431 42.6902ZM34.8663 42.6902C34.8506 42.2706 34.9193 41.852 35.0683 41.4594C35.2172 41.0668 35.4434 40.708 35.7335 40.4044C36.0235 40.1007 36.3715 39.8583 36.7569 39.6915C37.1423 39.5247 37.5572 39.4369 37.9771 39.4333C38.4281 39.4279 38.8732 39.5362 39.2714 39.748C39.6695 39.9598 40.008 40.2685 40.2555 40.6455V39.6086H41.3655V45.728H40.2555V44.7057C40.0053 45.079 39.6659 45.3841 39.2681 45.5932C38.8703 45.8023 38.4265 45.9089 37.9771 45.9033C37.5548 45.9074 37.1361 45.8262 36.7459 45.6647C36.3557 45.5032 36.002 45.2647 35.7062 44.9634C35.4103 44.662 35.1782 44.3041 35.0239 43.911C34.8695 43.5179 34.7961 43.0977 34.8079 42.6756" fill="#22ACE3"></path> <path d="M44.8121 43.5519V40.5141H43.3516V39.6232H44.8121V37.5639H45.9366V39.6232H47.9813V40.5141H45.9366V43.5227C45.9366 44.4866 46.3748 44.9832 47.2365 44.9832C47.4846 44.9965 47.7332 44.9965 47.9813 44.9832V45.9033C47.6845 45.9725 47.3806 46.0068 47.0758 46.0055C46.7635 46.0294 46.4498 45.9837 46.1573 45.8717C45.8648 45.7597 45.6008 45.5843 45.3843 45.358C45.1678 45.1317 45.0041 44.8602 44.9052 44.563C44.8062 44.2658 44.7744 43.9504 44.8121 43.6395" fill="#22ACE3"></path> <path d="M50.5957 45.7426H51.6911V39.6232H50.5957V45.7426ZM50.5957 37.3156H51.7495V35.8551H50.5957V37.3156Z" fill="#22ACE3"></path> <path d="M60.0452 42.6902C60.0481 42.2361 59.916 41.7913 59.6658 41.4123C59.4157 41.0333 59.0586 40.7371 58.6398 40.5614C58.2211 40.3856 57.7596 40.3381 57.3139 40.4249C56.8681 40.5117 56.4582 40.7289 56.136 41.049C55.8139 41.3691 55.5941 41.7776 55.5044 42.2228C55.4147 42.668 55.4593 43.1298 55.6324 43.5496C55.8055 43.9695 56.0994 44.3285 56.4768 44.5811C56.8542 44.8337 57.2981 44.9685 57.7522 44.9685C58.0548 44.9786 58.3562 44.9267 58.638 44.8159C58.9198 44.7052 59.176 44.538 59.3907 44.3246C59.6055 44.1112 59.7744 43.8561 59.8869 43.575C59.9994 43.2939 60.0533 42.9928 60.0452 42.6902ZM54.3492 42.6902C54.3142 42.0108 54.4836 41.3364 54.8356 40.7543C55.1876 40.1721 55.706 39.7088 56.3239 39.4241C56.9418 39.1395 57.6309 39.0466 58.3021 39.1574C58.9733 39.2683 59.5959 39.5778 60.0895 40.0459C60.5831 40.5141 60.925 41.1195 61.0712 41.7839C61.2173 42.4484 61.161 43.1413 60.9094 43.7734C60.6578 44.4055 60.2225 44.9477 59.6597 45.3299C59.0969 45.7122 58.4325 45.917 57.7522 45.9179C57.3128 45.946 56.8723 45.8832 56.4584 45.7333C56.0444 45.5833 55.6659 45.3496 55.3464 45.0466C55.027 44.7436 54.7735 44.3779 54.6019 43.9724C54.4303 43.567 54.3443 43.1304 54.3492 42.6902Z" fill="#22ACE3"></path> <path d="M63.6826 39.6232H64.7926V40.6017C65.1287 40.123 65.6097 39.7649 66.1646 39.5801C66.7196 39.3953 67.3192 39.3935 67.8752 39.575C68.4313 39.7565 68.9143 40.1118 69.2533 40.5885C69.5923 41.0651 69.7693 41.638 69.7583 42.2228V45.7426H68.6483V42.3543C68.6696 42.1065 68.6374 41.857 68.554 41.6228C68.4706 41.3885 68.3379 41.1748 68.1648 40.9962C67.9918 40.8177 67.7824 40.6783 67.5509 40.5875C67.3193 40.4968 67.071 40.4568 66.8227 40.4702C66.5496 40.4576 66.2768 40.5023 66.0221 40.6016C65.7673 40.7008 65.5361 40.8523 65.3435 41.0463C65.1509 41.2403 65.001 41.4725 64.9036 41.728C64.8062 41.9835 64.7634 42.2565 64.778 42.5295V45.8156H63.6826V39.6232Z" fill="#22ACE3"></path> <path d="M77.221 40.514H75.6729V39.6231H77.221V37.9728C77.2133 37.6448 77.2752 37.319 77.4026 37.0167C77.53 36.7144 77.72 36.4425 77.9601 36.219C78.2002 35.9954 78.485 35.8253 78.7956 35.7198C79.1062 35.6143 79.4357 35.5758 79.7622 35.6068C79.9989 35.6016 80.2351 35.6311 80.4633 35.6944V36.6291C80.2837 36.6088 80.1024 36.6088 79.9229 36.6291C79.7203 36.6108 79.5162 36.635 79.3235 36.7002C79.1309 36.7653 78.9539 36.87 78.8041 37.0075C78.6542 37.145 78.5347 37.3123 78.4533 37.4986C78.3718 37.685 78.3301 37.8863 78.3309 38.0896V39.74H80.4633V40.6309H78.3309V45.8594H77.221V40.514Z" fill="#22ACE3"></path> <path d="M87.6343 42.6902C87.6372 42.2361 87.5052 41.7913 87.255 41.4123C87.0048 41.0333 86.6477 40.7372 86.229 40.5614C85.8103 40.3856 85.3488 40.3381 84.9031 40.4249C84.4573 40.5117 84.0474 40.7289 83.7252 41.049C83.4031 41.3691 83.1832 41.7777 83.0936 42.2228C83.0039 42.668 83.0485 43.1298 83.2216 43.5497C83.3947 43.9695 83.6886 44.3285 84.066 44.5811C84.4433 44.8337 84.8872 44.9685 85.3414 44.9686C85.644 44.9786 85.9454 44.9267 86.2272 44.8159C86.509 44.7052 86.7651 44.538 86.9799 44.3246C87.1947 44.1112 87.3635 43.8561 87.4761 43.575C87.5886 43.294 87.6425 42.9928 87.6343 42.6902ZM81.953 42.6902C81.9209 42.0141 82.0921 41.3439 82.4443 40.766C82.7966 40.1881 83.3139 39.7289 83.9295 39.4476C84.5451 39.1663 85.2309 39.0759 85.8984 39.1879C86.5659 39.3 87.1845 39.6093 87.6746 40.0762C88.1647 40.543 88.5037 41.1459 88.648 41.8072C88.7923 42.4684 88.7352 43.1578 88.4842 43.7863C88.2331 44.4149 87.7996 44.9538 87.2395 45.3338C86.6793 45.7137 86.0182 45.9171 85.3414 45.9179C84.9027 45.9462 84.4629 45.8833 84.0497 45.7332C83.6364 45.5832 83.2588 45.3491 82.9405 45.0459C82.6222 44.7427 82.3701 44.3769 82.2002 43.9714C82.0302 43.566 81.9461 43.1297 81.953 42.6902Z" fill="#22ACE3"></path> <path d="M91.2705 39.6232H92.3805V40.6893C92.5317 40.3177 92.7903 39.9996 93.1234 39.7758C93.4564 39.5521 93.8487 39.4328 94.2499 39.4333C94.4583 39.4047 94.6696 39.4047 94.8779 39.4333V40.441C94.6833 40.3845 94.4818 40.355 94.2791 40.3534C93.1107 40.3534 92.3805 41.2735 92.3805 42.734V45.655H91.2705V39.6232Z" fill="#22ACE3"></path> <path d="M100.924 42.6902C100.904 42.2497 100.978 41.8101 101.14 41.4001C101.303 40.9902 101.55 40.6193 101.866 40.3117C102.182 40.0041 102.559 39.7668 102.973 39.6154C103.387 39.464 103.829 39.4019 104.269 39.4333C104.956 39.3755 105.641 39.5707 106.195 39.9821C106.749 40.3935 107.134 40.9929 107.277 41.6678H106.167C106.043 41.2691 105.788 40.9238 105.444 40.6879C105.099 40.452 104.685 40.3393 104.269 40.368C103.66 40.368 103.077 40.6096 102.647 41.0396C102.217 41.4696 101.976 42.0528 101.976 42.661C101.976 43.2691 102.217 43.8523 102.647 44.2823C103.077 44.7124 103.66 44.9539 104.269 44.9539C104.682 44.9897 105.096 44.8833 105.441 44.6523C105.786 44.4213 106.042 44.0795 106.167 43.6833H107.277C107.134 44.3571 106.748 44.9549 106.194 45.3639C105.64 45.7729 104.955 45.9648 104.269 45.9033C103.831 45.9366 103.391 45.8769 102.978 45.7281C102.565 45.5793 102.188 45.3447 101.872 45.0399C101.556 44.735 101.308 44.3667 101.145 43.9592C100.982 43.5517 100.906 43.1142 100.924 42.6756" fill="#22ACE3"></path> <path d="M109.819 35.7967H110.915V40.6309C111.244 40.1443 111.722 39.7776 112.277 39.5856C112.832 39.3936 113.435 39.3868 113.994 39.5661C114.553 39.7455 115.04 40.1013 115.38 40.5803C115.72 41.0593 115.895 41.6356 115.88 42.2228V45.7426H114.8V42.3543C114.821 42.1065 114.789 41.857 114.705 41.6228C114.622 41.3885 114.489 41.1748 114.316 40.9962C114.143 40.8176 113.934 40.6783 113.702 40.5875C113.471 40.4968 113.222 40.4568 112.974 40.4702C112.701 40.4622 112.43 40.5099 112.176 40.6105C111.923 40.7111 111.693 40.8625 111.5 41.0554C111.307 41.2483 111.156 41.4785 111.055 41.732C110.954 41.9855 110.907 42.2569 110.915 42.5295V45.8156H109.819V35.7967Z" fill="#22ACE3"></path> <path d="M118.669 45.7426H119.764V39.6232H118.669V45.7426ZM118.669 37.3156H119.764V35.8551H118.61L118.669 37.3156Z" fill="#22ACE3"></path> <path d="M123.854 35.7967H122.759V45.7426H123.854V35.7967Z" fill="#22ACE3"></path> <path d="M131.887 42.6902C131.905 42.3941 131.862 42.0974 131.762 41.8182C131.662 41.539 131.506 41.2831 131.304 41.066C131.102 40.8488 130.858 40.675 130.586 40.555C130.315 40.4351 130.022 40.3714 129.726 40.368C129.143 40.4143 128.6 40.6782 128.204 41.1073C127.808 41.5363 127.587 42.0989 127.587 42.6829C127.587 43.2669 127.808 43.8295 128.204 44.2585C128.6 44.6875 129.143 44.9515 129.726 44.9978C130.021 44.9942 130.313 44.931 130.583 44.812C130.853 44.6929 131.096 44.5204 131.298 44.3048C131.5 44.0893 131.657 43.8351 131.758 43.5577C131.859 43.2802 131.903 42.9851 131.887 42.6902ZM131.887 40.6601V35.7967H132.997V45.7426H131.887V44.7203C131.635 45.0918 131.295 45.3954 130.898 45.6043C130.501 45.8132 130.058 45.9209 129.609 45.9179C128.788 45.8627 128.02 45.4979 127.458 44.8973C126.896 44.2967 126.584 43.5051 126.584 42.6829C126.584 41.8606 126.896 41.0691 127.458 40.4685C128.02 39.8679 128.788 39.503 129.609 39.4479C130.06 39.4439 130.504 39.5527 130.902 39.7644C131.3 39.9761 131.639 40.284 131.887 40.6601Z" fill="#22ACE3"></path> <path d="M135.83 39.6231H136.925V40.6893C137.076 40.3082 137.34 39.9829 137.683 39.758C138.026 39.5332 138.429 39.4197 138.839 39.4333C139.052 39.4046 139.268 39.4046 139.481 39.4333V40.441C139.281 40.3854 139.075 40.3559 138.868 40.3534C137.7 40.3534 136.969 41.2735 136.969 42.734V45.655H135.83V39.6231Z" fill="#22ACE3"></path> <path d="M146.404 42.3543C146.408 42.0898 146.359 41.8273 146.258 41.5826C146.158 41.3378 146.009 41.1159 145.821 40.9303C145.633 40.7446 145.408 40.5991 145.162 40.5024C144.916 40.4058 144.653 40.3601 144.389 40.368C143.835 40.3478 143.295 40.5437 142.884 40.9145C142.472 41.2852 142.221 41.8016 142.183 42.3543H146.404ZM141.088 42.7194C141.06 42.2819 141.126 41.8436 141.28 41.4333C141.435 41.0231 141.674 40.6504 141.984 40.3397C142.293 40.0291 142.665 39.7876 143.074 39.6314C143.484 39.4751 143.922 39.4076 144.359 39.4333C144.792 39.4148 145.225 39.4891 145.626 39.6514C146.028 39.8137 146.391 40.0602 146.69 40.3743C146.989 40.6883 147.217 41.0627 147.359 41.4722C147.501 41.8817 147.554 42.3169 147.514 42.7486V43.1283H142.212C142.281 43.6664 142.549 44.1593 142.962 44.5105C143.375 44.8617 143.905 45.0459 144.447 45.027C144.777 45.0541 145.108 44.9926 145.405 44.8488C145.703 44.7049 145.957 44.4841 146.141 44.2091H147.339C147.081 44.7553 146.664 45.2108 146.143 45.5157C145.622 45.8207 145.02 45.9609 144.418 45.9179C143.981 45.9489 143.542 45.8875 143.13 45.7379C142.718 45.5882 142.342 45.3536 142.026 45.0492C141.711 44.7448 141.463 44.3775 141.299 43.9711C141.135 43.5647 141.058 43.1282 141.073 42.6902" fill="#22ACE3"></path> <path d="M150.069 39.6231H151.165V40.6017C151.405 40.2415 151.731 39.9464 152.113 39.7426C152.496 39.5387 152.922 39.4325 153.355 39.4333C153.724 39.4165 154.091 39.4769 154.435 39.6106C154.778 39.7444 155.09 39.9484 155.35 40.2097C155.61 40.4711 155.812 40.7838 155.944 41.128C156.076 41.4722 156.134 41.8401 156.116 42.2082V45.728H155.006V42.3543C155.027 42.1065 154.995 41.857 154.911 41.6228C154.828 41.3885 154.695 41.1748 154.522 40.9962C154.349 40.8176 154.14 40.6783 153.908 40.5875C153.677 40.4968 153.428 40.4568 153.18 40.4702C152.906 40.4578 152.633 40.5025 152.377 40.6016C152.122 40.7007 151.89 40.8519 151.696 41.0457C151.502 41.2394 151.351 41.4715 151.252 41.727C151.153 41.9824 151.108 42.2558 151.121 42.5295V45.8156H150.025L150.069 39.6231Z" fill="#22ACE3"></path> <path d="M170.269 14.6049C169.846 14.6135 169.43 14.4952 169.075 14.2652C168.72 14.0352 168.442 13.704 168.276 13.3144C168.111 12.9249 168.067 12.4948 168.148 12.0795C168.23 11.6643 168.434 11.2831 168.734 10.9849C169.034 10.6868 169.417 10.4854 169.833 10.4068C170.248 10.3282 170.678 10.3759 171.067 10.5439C171.455 10.7118 171.784 10.9923 172.012 11.3491C172.239 11.7059 172.355 12.1226 172.343 12.5456C172.328 13.0896 172.104 13.607 171.718 13.9904C171.332 14.3738 170.813 14.5939 170.269 14.6049ZM181.106 20.038C182.778 17.8455 183.667 15.1565 183.633 12.3996C183.633 5.60829 178.652 0 170.488 0C162.324 0 157.344 5.60829 157.344 12.3996C157.344 19.1909 162.295 24.7992 170.488 24.7992C173.117 24.8437 175.706 24.156 177.966 22.8129L184.567 25.7339L181.106 20.038Z" fill="#FFD302"></path> <path d="M158.906 47.7581C131.332 47.4076 103.538 47.393 76.052 49.759C74.5915 49.8904 69.9472 52.3732 73.6422 52.0519C100.72 49.7297 128.119 49.7298 155.284 50.0803C156.676 50.1144 158.05 49.7496 159.242 49.0287C160.118 48.4591 160.001 47.7727 158.906 47.7581Z" fill="#FFD302"></path> </svg> 