<?xml version="1.0" encoding="UTF-8"?> <svg xmlns="http://www.w3.org/2000/svg" width="30" height="30" viewBox="0 0 30 30" fill="none"> <path d="M15 30C12.9688 30 11.0254 29.6045 9.16992 28.8135C7.31445 28.0225 5.71777 26.958 4.37988 25.6201C3.04199 24.2822 1.97754 22.6855 1.18652 20.8301C0.395508 18.9746 0 17.0312 0 15C0 12.9688 0.395508 11.0254 1.18652 9.16992C1.97754 7.31445 3.04199 5.71777 4.37988 4.37988C5.71777 3.04199 7.31445 1.97754 9.16992 1.18652C11.0254 0.395508 12.9688 0 15 0C17.0312 0 18.9746 0.395508 20.8301 1.18652C22.6855 1.97754 24.2822 3.04199 25.6201 4.37988C26.958 5.71777 28.0225 7.31445 28.8135 9.16992C29.6045 11.0254 30 12.9688 30 15C30 17.0312 29.6045 18.9746 28.8135 20.8301C28.0225 22.6855 26.958 24.2822 25.6201 25.6201C24.2822 26.958 22.6855 28.0225 20.8301 28.8135C18.9746 29.6045 17.0312 30 15 30ZM22.5 9.375C22.5 8.86719 22.3193 8.42773 21.958 8.05664C21.5967 7.68555 21.1523 7.5 20.625 7.5H9.375C8.86719 7.5 8.42773 7.68555 8.05664 8.05664C7.68555 8.42773 7.5 8.86719 7.5 9.375V11.25H10.8398C11.9727 10 13.3594 9.375 15 9.375C16.6406 9.375 18.0273 10 19.1602 11.25H22.5V9.375ZM11.25 15C11.25 16.0352 11.6162 16.9189 12.3486 17.6514C13.0811 18.3838 13.9648 18.75 15 18.75C16.0352 18.75 16.9189 18.3838 17.6514 17.6514C18.3838 16.9189 18.75 16.0352 18.75 15C18.75 13.9648 18.3838 13.0811 17.6514 12.3486C16.9189 11.6162 16.0352 11.25 15 11.25C13.9648 11.25 13.0811 11.6162 12.3486 12.3486C11.6162 13.0811 11.25 13.9648 11.25 15ZM22.5 13.125H20.2734C20.5078 13.7695 20.625 14.3945 20.625 15C20.625 16.5625 20.0781 17.8906 18.9844 18.9844C17.8906 20.0781 16.5625 20.625 15 20.625C13.4375 20.625 12.1094 20.0781 11.0156 18.9844C9.92188 17.8906 9.375 16.5625 9.375 15C9.375 14.3945 9.49219 13.7695 9.72656 13.125H7.5V20.625C7.5 21.1523 7.68066 21.5967 8.04199 21.958C8.40332 22.3193 8.84766 22.5 9.375 22.5H20.625C21.1523 22.5 21.5967 22.3193 21.958 21.958C22.3193 21.5967 22.5 21.1523 22.5 20.625V13.125Z" fill="#22ACE3"></path> </svg> 