<?xml version="1.0" encoding="UTF-8"?> <svg xmlns="http://www.w3.org/2000/svg" width="198" height="115" viewBox="0 0 198 115" fill="none"> <path d="M6.60763 112.432C14.7301 88.0285 29.7096 61.0822 57.9332 56.1172C58.9696 55.8159 60.018 55.599 61.0424 55.3941C53.9925 69.5783 52.2933 85.2567 64.971 96.0907C79.7216 108.684 110.428 103.454 109.56 79.0625C108.861 59.5879 97.3885 48.525 82.4933 44.4156C85.2865 41.4252 88.5415 38.9026 92.1342 36.9439C99.6475 32.7413 107.989 30.2323 116.574 29.5927C116.574 29.6771 116.477 29.7374 116.441 29.8097C106.126 48.9829 102.558 77.6525 128.709 84.8108C153.655 91.6438 170.888 57.6597 157.704 38.4865C152.638 31.1846 145.698 25.3817 137.615 21.6872C153.149 9.46743 174.419 7.22593 196.256 11.1666C196.403 11.2339 196.562 11.2715 196.723 11.2773C196.885 11.2831 197.046 11.257 197.198 11.2005C197.35 11.144 197.489 11.0582 197.607 10.948C197.726 10.8377 197.821 10.7052 197.889 10.5581C197.956 10.4109 197.993 10.2519 197.999 10.0902C198.005 9.92846 197.979 9.76719 197.922 9.61556C197.866 9.46392 197.78 9.32491 197.67 9.20645C197.56 9.08798 197.427 8.99239 197.28 8.92513C174.997 -6.28334 143.809 -1.20983 125.335 17.7345C118.578 16.4041 111.623 16.434 104.878 17.8224C98.132 19.2108 91.7309 21.9299 86.0484 25.8208C79.6181 30.5147 73.9306 36.1494 69.1769 42.5356C62.0058 42.4757 54.872 43.5744 48.0513 45.7894C21.2738 54.2975 -0.32175 83.2803 0.00362915 111.311C0.00543536 112.113 0.290405 112.888 0.808202 113.499C1.326 114.111 2.04331 114.52 2.83342 114.654C3.62353 114.788 4.43562 114.639 5.12622 114.232C5.81683 113.825 6.34152 113.188 6.60763 112.432ZM128.528 30.9666C131.236 31.7773 133.805 32.9965 136.145 34.5819C140.108 36.7786 143.459 39.9311 145.894 43.7528C149.389 53.0924 151.45 70.8195 138.266 73.6154C135.686 74.1414 133.024 74.1103 130.457 73.5242C127.89 72.9381 125.478 71.8106 123.383 70.217C121.298 68.1636 119.879 65.531 119.309 62.6609H118.731C117.699 56.8392 118.244 50.8474 120.31 45.3074C122.387 40.2043 125.144 35.4049 128.504 31.0389L128.528 30.9666ZM74.7204 55.4303C78.7263 56.2277 82.5817 57.6511 86.1448 59.6482C86.2653 59.9856 86.3617 60.311 86.4702 60.6605C93.1947 64.5168 98.3526 72.2657 98.1356 79.8819C97.9308 86.5462 91.8811 90.0169 85.7953 89.8723C82.6124 89.7878 79.493 88.9625 76.6847 87.4621C74.8541 87.1415 73.1666 86.2652 71.8514 84.9522C70.5362 83.6391 69.6571 81.953 69.3335 80.123C68.563 78.5504 68.1755 76.8178 68.2027 75.0668C68.23 73.3158 68.6711 71.5961 69.4902 70.0483C69.7674 68.3732 70.141 66.6137 70.6953 64.7096C71.7978 61.5182 73.1434 58.4159 74.7204 55.4303Z" fill="#00AEED"></path> </svg> 