<?xml version="1.0" encoding="UTF-8"?> <svg xmlns="http://www.w3.org/2000/svg" width="112" height="89" viewBox="0 0 112 89" fill="none"> <path d="M60.2303 33.0948C68.1403 26.8448 78.7203 20.6748 84.2903 12.1748C88.4803 5.77481 81.2903 -2.82519 74.2903 0.904811C64.8903 5.90481 57.0403 16.5548 50.8103 25.0048C47.3603 29.7148 39.4803 38.8248 42.4803 45.2548C42.5379 45.3755 42.634 45.4735 42.7536 45.5333C42.8732 45.5931 43.0093 45.6112 43.1403 45.5848C49.4303 44.5848 55.4403 36.8548 60.2103 33.0948" fill="#00AEED"></path> <path d="M100.79 41.2248C109.53 35.3948 103.49 23.2248 93.5603 26.7048C80.0103 31.4248 55.6603 41.6348 50.9103 56.6648C50.7823 57.0617 50.7595 57.485 50.844 57.8934C50.9286 58.3017 51.1177 58.6811 51.3928 58.9945C51.6679 59.3079 52.0196 59.5446 52.4135 59.6813C52.8075 59.8181 53.2302 59.8503 53.6403 59.7748C61.6403 57.7048 69.5003 53.5848 77.2903 50.6348C84.7703 47.7848 94.0903 45.6948 100.79 41.2248Z" fill="#00AEED"></path> <path d="M106.62 60.0148C99.2501 58.5048 90.2401 61.5948 83.0101 62.9048C76.1801 64.1348 67.4001 64.9048 61.6601 69.1648C60.1101 70.3348 60.5601 72.8148 62.0101 73.8048C67.3001 77.3948 76.1701 75.8048 82.0801 75.2348C89.5201 74.5048 98.5901 75.0548 105.78 73.0548C111.57 71.4548 113.96 61.4348 106.65 59.9748" fill="#00AEED"></path> <path d="M34.7 71.0148C34.696 67.5837 33.6749 64.2309 31.7656 61.3801C29.8563 58.5293 27.1446 56.3086 23.9734 54.9988C20.8022 53.689 17.3138 53.3489 13.9493 54.0214C10.5847 54.6939 7.49515 56.3489 5.07111 58.7771C2.64706 61.2054 0.997412 64.2978 0.330707 67.6635C-0.335997 71.0292 0.0101835 74.517 1.32548 77.6859C2.64078 80.8549 4.86614 83.5627 7.72021 85.4671C10.5743 87.3714 13.9289 88.3868 17.36 88.3848C19.6396 88.3848 21.8969 87.9353 24.0027 87.062C26.1084 86.1887 28.0213 84.9088 29.6318 83.2955C31.2424 81.6821 32.519 79.767 33.3887 77.6598C34.2583 75.5525 34.7039 73.2945 34.7 71.0148Z" fill="#00AEED"></path> </svg> 