<?xml version="1.0" encoding="UTF-8"?> <svg xmlns="http://www.w3.org/2000/svg" width="46" height="46" viewBox="0 0 46 46" fill="none"> <path d="M45.6922 14.8747C45.411 14.2182 44.953 13.6535 44.3697 13.2444C43.7863 12.8353 43.1009 12.598 42.3905 12.5592L30.9607 11.9444L24.9842 2.12694C24.6141 1.51721 24.0814 1.02382 23.4465 0.702703C22.8115 0.381586 22.0998 0.24558 21.3918 0.310098C20.6839 0.374616 20.0081 0.637079 19.4411 1.06774C18.874 1.4984 18.4384 2.08004 18.1835 2.74673L14.0577 13.4814L2.91906 16.1639C2.22814 16.3308 1.59747 16.6886 1.0983 17.1967C0.599123 17.7048 0.251345 18.3431 0.094257 19.0394C-0.0628308 19.7357 -0.0229668 20.4622 0.209345 21.1369C0.441656 21.8117 0.857156 22.4076 1.4089 22.8576L10.2922 30.1116L9.36932 41.5751C9.32702 42.1026 9.39405 42.6332 9.56617 43.1334C9.73829 43.6335 10.0118 44.0924 10.3693 44.481C10.7269 44.8696 11.1608 45.1795 11.6436 45.3911C12.1264 45.6027 12.6476 45.7114 13.1743 45.7104C13.9088 45.7141 14.628 45.5002 15.2422 45.0955L24.8658 38.8431L35.4468 43.256C35.9156 43.4529 36.4192 43.5524 36.9273 43.5486H36.9717C37.4729 43.5499 37.9694 43.4518 38.4328 43.26C38.8961 43.0682 39.3173 42.7865 39.6721 42.4309C40.027 42.0753 40.3085 41.6529 40.5006 41.1879C40.6927 40.7228 40.7915 40.2243 40.7915 39.7207C40.7955 39.179 40.6827 38.6428 40.4609 38.149L37.6429 27.6175L45.0851 18.8761C45.5474 18.3322 45.8491 17.6693 45.9564 16.9623C46.0636 16.2553 45.9721 15.5323 45.6922 14.8747Z" fill="#00AEED"></path> </svg> 