<?xml version="1.0" encoding="UTF-8"?> <svg xmlns="http://www.w3.org/2000/svg" width="22" height="22" viewBox="0 0 22 22" fill="none"> <path d="M4.44256 0.00149985C4.81851 -0.0206708 5.15834 0.204047 5.41596 0.602905L7.9107 5.33404C8.17337 5.89466 8.02411 6.49494 7.63228 6.8955L6.4896 8.03819C6.41908 8.13484 6.37267 8.24368 6.37154 8.36339C6.80975 10.0596 8.13901 11.6243 9.31182 12.7003C10.4846 13.7763 11.7451 15.2331 13.3813 15.5782C13.5836 15.6346 13.8313 15.6548 13.9761 15.5203L15.3036 14.1682C15.7619 13.8209 16.4248 13.6526 16.9141 13.9366H16.9363L21.438 16.594C22.0988 17.0081 22.1672 17.8087 21.6941 18.2957L18.5936 21.3719C18.1357 21.8414 17.5274 21.9993 16.9364 22C14.3225 21.9217 11.8528 20.6388 9.82415 19.3204C6.49432 16.8979 3.43993 13.8934 1.52238 10.2635C0.786951 8.74132 -0.076968 6.79919 0.00547943 5.10023C0.0128392 4.46108 0.185762 3.83492 0.635863 3.42295L3.73648 0.32232C3.97801 0.116794 4.21696 0.0148205 4.44256 0.00149985Z" fill="#22ACE3"></path> </svg> 