<?xml version="1.0" encoding="UTF-8"?> <svg xmlns="http://www.w3.org/2000/svg" viewBox="0 0 428.89 45.1"> <defs> <style>.cls-1{fill:#fff;}.cls-2{fill:#fcc600;}</style> </defs> <title>Asset 1</title> <g id="Layer_2" data-name="Layer 2"> <g id="Layer_1-2" data-name="Layer 1"> <path class="cls-1" d="M14.62,12.55V17H32.54V28.38H14.62V43.59H0V1.14H34.86V12.55Z"></path> <path class="cls-1" d="M43.56,26V1.14H58V26.47a5.22,5.22,0,0,0,1.38,3.89,5.11,5.11,0,0,0,1.73,1.21,5.21,5.21,0,0,0,2.06.43A5,5,0,0,0,67,30.42a5.1,5.1,0,0,0,1.09-1.83,4.92,4.92,0,0,0,.22-2.12V1.14H82.92V26c0,11.21-7.75,18.26-19.73,18.26S43.49,37.16,43.49,26"></path> <path class="cls-1" d="M126.56,43.59,107.24,25.82V43.59H92.76V1.14h6L118.14,19V1.14h14.51V43.59Z"></path> <path class="cls-1" d="M145.59,27.68a26.63,26.63,0,0,0,13.87,5.17c3.12,0,4-.88,4-2.09s-1.86-2.25-4.57-2.79c-6.79-1.27-18.07-2.59-18.07-13.33S151,.54,158.58.54a25.67,25.67,0,0,1,18.23,7.08l-6,8.75a22.4,22.4,0,0,0-12.47-4.44c-2.09,0-3.08.8-3.08,2.07s2.1,2.22,5.4,2.58C168.37,17.74,178,19.16,178,29.85c0,9.63-7.36,14.33-17.87,14.33a30.19,30.19,0,0,1-20.82-8Z"></path> <path class="cls-1" d="M215.18,25.26h15.5C229,38.17,221,44.83,207.05,44.83s-23.24-9-23.24-22.42S193.13,0,207.05,0,229,6.71,230.68,19.57h-15.5A7.52,7.52,0,0,0,207.44,13c-5.17,0-8.42,3.75-8.42,9.45s3.33,9.46,8.42,9.46a7.52,7.52,0,0,0,7.74-6.61Z"></path> <path class="cls-1" d="M428.89,32.15V43.59H394.62V1.14h14.62v31Z"></path> <path class="cls-1" d="M253.24,33.28V44.72H238.62V2.27h14.62Z"></path> <path class="cls-1" d="M284.24,33.28V44.72H269.62V2.27h14.62Z"></path> <path class="cls-2" d="M257.18,42.75a9.14,9.14,0,0,1-4.09-.61L250.31,42a3,3,0,0,1-2.49-4.42c-2.49,0-4.86.09-6.77.11h-3.11c-1,0-3.91-.08-4.09-2.91s2.87-3.28,4.17-3.42c1.62-.17,3.24-.35,4.87-.55a1.77,1.77,0,0,1,0-.23,3,3,0,0,1,3-3h1.28c1.42,0,2.86-.06,4.31-.16l-4-.08-3.6-.08c-1.16,0-4.25-.1-4.39-3a2.77,2.77,0,0,1,.72-2.18A2.73,2.73,0,0,1,238.93,20a3.14,3.14,0,0,1,2.74-3.45c.34-.08.68-.14,1-.19h-2.13l-.77,0c-1.38.05-4.25.14-4.44-2.79-.09-1.33.47-3,3.62-3.31l1.44-.13a3.42,3.42,0,0,1-.27-1.34,3.19,3.19,0,0,1,.39-1.55V6.52h.53a3.31,3.31,0,0,1,2.22-.84A17.58,17.58,0,0,0,247,5a29.91,29.91,0,0,1,6.44-.82c1.28-.06,2.5-.13,3.66-.3A158,158,0,0,1,280.8,1.89a3,3,0,0,1,3,3,3,3,0,0,1-.11.79h5.78a3,3,0,0,1,0,6H277.35a3.18,3.18,0,0,1-.94.66,3.28,3.28,0,0,1,.16,1v.07a2.16,2.16,0,0,1,.95.73,3,3,0,0,1,.7,2.39c-.26,1.84-1.58,2.73-4.26,3.28a2.46,2.46,0,0,1-1.37,2.51c1.82.13,3.63.27,5.44.44l.52,0a10.23,10.23,0,0,1,2.08.28,3.09,3.09,0,0,1,2.28,3c0,1.1-.57,2.54-3,3.09l-3,.66a3,3,0,0,1,.11.75,3.08,3.08,0,0,1-.08.83h.18c1.74,0,4.28,0,4.63,2.7a2.78,2.78,0,0,1-.68,2.36h1.91a3,3,0,0,1,0,6H272.11c-1.56,0-4.05.07-6.69.14s-5.23.15-7.29.16Z"></path> <path class="cls-1" d="M314.25.27h-.39c-13.91,0-23.24,9-23.24,22.41S300,45.1,313.86,45.1h.39c13.92,0,23.24-9,23.24-22.42S328.17.27,314.25.27Zm-.19,31.85c-5-.09-8.23-3.8-8.23-9.44s3.18-9.35,8.23-9.44c5.05.09,8.22,3.81,8.22,9.44S319,32,314.06,32.12Z"></path> <path class="cls-1" d="M365.75.27h-.39c-13.91,0-23.24,9-23.24,22.41s9.33,22.42,23.24,22.42h.39c13.92,0,23.24-9,23.24-22.42S379.67.27,365.75.27Zm-.19,31.85c-5-.09-8.23-3.8-8.23-9.44s3.18-9.35,8.23-9.44c5.05.09,8.22,3.81,8.22,9.44S370.53,32,365.56,32.12Z"></path> </g> </g> </svg> 